<svg xmlns="http://www.w3.org/2000/svg" viewBox="0 0 500 500"><g id="freepik--Sign--inject-5"><rect x="246.18" y="71.24" width="8.15" height="352.89" style="fill:#ebebeb"></rect><circle cx="250.28" cy="130.83" r="52.4" transform="translate(64.3 343.35) rotate(-76.41)" style="fill:#fff"></circle><path d="M302.68,130.83A52.65,52.65,0,0,1,201.4,151.07a52.66,52.66,0,0,1,86-57.35,52.53,52.53,0,0,1,15.29,37.11Zm0,0a52.39,52.39,0,0,0-15.41-37,52,52,0,1,0,15.41,37Z" style="fill:#263238"></path><path d="M250.28,174.61a43.79,43.79,0,1,1,43.78-43.78A43.83,43.83,0,0,1,250.28,174.61Zm0-78.68a34.9,34.9,0,1,0,34.89,34.9A34.94,34.94,0,0,0,250.28,95.93Z" style="fill:#FFC727"></path><rect x="245.83" y="91.61" width="8.89" height="78.43" transform="translate(-19.2 215.29) rotate(-45)" style="fill:#FFC727"></rect></g><g id="freepik--401-error--inject-5"><path d="M168.47,200.9V169.74H110.18V159.23l62.14-80.52h8.05v80.17h15.41v10.86H180.37V200.9Zm-45.69-42H169.7V97.44Z" style="fill:#FFC727"></path><path d="M377.82,167.81v10.85H318.48V167.81h24.86V92.89a19.29,19.29,0,0,1-4.82,4.55A58.56,58.56,0,0,1,331,102a56.82,56.82,0,0,1-8.49,3.5,25.57,25.57,0,0,1-7.71,1.4V95.34a20.85,20.85,0,0,0,8.84-2.28,63,63,0,0,0,9.11-5.25,81.36,81.36,0,0,0,7.26-5.6q3-2.62,3.33-3.5h12.25v89.1Z" style="fill:#FFC727"></path><path d="M227.06,68.54V70.6H216.92V55.82h10v2.06h-7.62v4.2h6.6V64h-6.6v4.52Z"></path><path d="M229.47,70.6V55.82h6.44a4.07,4.07,0,0,1,1.84.41,4.9,4.9,0,0,1,1.45,1.09,5.32,5.32,0,0,1,.94,1.55,4.67,4.67,0,0,1,.35,1.75,4.92,4.92,0,0,1-.21,1.44,5.08,5.08,0,0,1-.59,1.27,3.82,3.82,0,0,1-.91,1,3.71,3.71,0,0,1-1.19.64l3.48,5.62h-2.65l-3.2-5.14H231.8V70.6Zm2.33-7.21h4.08a1.94,1.94,0,0,0,.91-.21,2.25,2.25,0,0,0,.7-.61,3.06,3.06,0,0,0,.46-.88,3.42,3.42,0,0,0,.16-1.07,2.74,2.74,0,0,0-.2-1.06,2.92,2.92,0,0,0-.52-.87,2.33,2.33,0,0,0-.74-.59,1.92,1.92,0,0,0-.89-.22h-4Z"></path><path d="M243.23,70.6V55.82h6.44a4.07,4.07,0,0,1,1.84.41A4.9,4.9,0,0,1,253,57.32a5.11,5.11,0,0,1,.94,1.55,4.67,4.67,0,0,1,.35,1.75,4.92,4.92,0,0,1-.21,1.44,5.06,5.06,0,0,1-.58,1.27,4,4,0,0,1-.92,1,3.61,3.61,0,0,1-1.19.64l3.48,5.62h-2.64L249,65.46h-3.41V70.6Zm2.34-7.21h4.08a1.93,1.93,0,0,0,.9-.21,2.15,2.15,0,0,0,.7-.61,3.06,3.06,0,0,0,.46-.88,3.43,3.43,0,0,0,.17-1.07,2.93,2.93,0,0,0-.2-1.06,3.4,3.4,0,0,0-.52-.87,2.48,2.48,0,0,0-.75-.59,1.89,1.89,0,0,0-.89-.22h-4Z"></path><path d="M263.14,70.7a6.55,6.55,0,0,1-2.89-.63A7.31,7.31,0,0,1,258,68.38a7.52,7.52,0,0,1-1.45-2.4,7.84,7.84,0,0,1-.51-2.77,7.54,7.54,0,0,1,.54-2.83,7.88,7.88,0,0,1,1.49-2.4,7.13,7.13,0,0,1,2.25-1.65,6.56,6.56,0,0,1,2.84-.62,6.23,6.23,0,0,1,2.88.66,7.25,7.25,0,0,1,2.23,1.71,7.84,7.84,0,0,1,1.44,2.41,7.68,7.68,0,0,1,.51,2.74,7.77,7.77,0,0,1-.53,2.83,7.49,7.49,0,0,1-1.49,2.38A7.28,7.28,0,0,1,266,70.09,6.53,6.53,0,0,1,263.14,70.7Zm-4.71-7.49a6.08,6.08,0,0,0,.34,2,5.41,5.41,0,0,0,.94,1.72,4.7,4.7,0,0,0,1.49,1.2,4.25,4.25,0,0,0,2,.45,4.15,4.15,0,0,0,2-.47,4.72,4.72,0,0,0,1.47-1.24,5.61,5.61,0,0,0,.91-1.73,6.35,6.35,0,0,0,0-4,5.28,5.28,0,0,0-.95-1.71,4.77,4.77,0,0,0-1.48-1.19,4.05,4.05,0,0,0-1.92-.44,4.19,4.19,0,0,0-2,.46,4.89,4.89,0,0,0-1.48,1.22,5.37,5.37,0,0,0-.92,1.72A6,6,0,0,0,258.43,63.21Z"></path><path d="M272.65,70.6V55.82h6.44a4.07,4.07,0,0,1,1.84.41,4.9,4.9,0,0,1,1.45,1.09,5.32,5.32,0,0,1,.94,1.55,4.67,4.67,0,0,1,.35,1.75,4.92,4.92,0,0,1-.21,1.44,5.06,5.06,0,0,1-.58,1.27,4,4,0,0,1-.92,1,3.71,3.71,0,0,1-1.19.64l3.48,5.62h-2.64l-3.21-5.14H275V70.6ZM275,63.39h4.09a1.93,1.93,0,0,0,.9-.21,2.25,2.25,0,0,0,.7-.61,3.06,3.06,0,0,0,.46-.88,3.42,3.42,0,0,0,.16-1.07,2.93,2.93,0,0,0-.19-1.06,3.4,3.4,0,0,0-.52-.87,2.48,2.48,0,0,0-.75-.59,1.89,1.89,0,0,0-.89-.22h-4Z"></path><path d="M193.9,198.83a2.62,2.62,0,0,0,2.39-1.24,4,4,0,0,0,.5-1.27,7.19,7.19,0,0,0,.15-1.47v-5.64h1.77v5.64a8.41,8.41,0,0,1-.27,2.16,5,5,0,0,1-.84,1.77,4.14,4.14,0,0,1-1.5,1.2,5.08,5.08,0,0,1-2.2.44,4.93,4.93,0,0,1-2.25-.47,4.06,4.06,0,0,1-1.48-1.23,5.1,5.1,0,0,1-.82-1.78,9,9,0,0,1-.25-2.09v-5.64h1.76v5.64a7.14,7.14,0,0,0,.15,1.48,3.67,3.67,0,0,0,.5,1.27,2.71,2.71,0,0,0,.94.9A2.91,2.91,0,0,0,193.9,198.83Z"></path><path d="M202.8,192.5v7.84h-1.75V189.21h1.38l6.36,8v-8h1.77v11.11H209.1Z"></path><path d="M216.34,189.21h1.54l4.39,11.13h-1.85l-1.18-3H215l-1.16,3h-1.87Zm2.56,6.8-1.79-4.78L215.26,196Z"></path><path d="M227.8,198.83a2.82,2.82,0,0,0,1.46-.34,2.76,2.76,0,0,0,.93-.9,3.75,3.75,0,0,0,.5-1.27,7.19,7.19,0,0,0,.15-1.47v-5.64h1.77v5.64a8.88,8.88,0,0,1-.26,2.16,5,5,0,0,1-.85,1.77A4.14,4.14,0,0,1,230,200a5.08,5.08,0,0,1-2.2.44,4.93,4.93,0,0,1-2.25-.47,4.06,4.06,0,0,1-1.48-1.23,4.91,4.91,0,0,1-.81-1.78,8.49,8.49,0,0,1-.26-2.09v-5.64h1.76v5.64a7.14,7.14,0,0,0,.15,1.48,3.88,3.88,0,0,0,.5,1.27,2.79,2.79,0,0,0,.94.9A2.93,2.93,0,0,0,227.8,198.83Z"></path><path d="M243.11,190.76h-3.7v9.58h-1.77v-9.58h-3.71v-1.55h9.18Z"></path><path d="M253.74,189.21v11.13H252v-4.91h-5.61v4.91H244.6V189.21h1.76v4.65H252v-4.65Z"></path><path d="M260.87,200.42a4.87,4.87,0,0,1-2.17-.48,5.41,5.41,0,0,1-1.68-1.27,5.65,5.65,0,0,1-1.09-1.81,5.82,5.82,0,0,1-.39-2.09,5.89,5.89,0,0,1,1.53-3.93,5.51,5.51,0,0,1,1.69-1.25,5.11,5.11,0,0,1,2.14-.46,4.84,4.84,0,0,1,2.17.49,5.53,5.53,0,0,1,1.68,1.3,5.81,5.81,0,0,1,1.08,1.81,5.66,5.66,0,0,1,.39,2.06,5.92,5.92,0,0,1-.4,2.13,5.75,5.75,0,0,1-1.12,1.8A5.53,5.53,0,0,1,263,200,4.87,4.87,0,0,1,260.87,200.42Zm-3.54-5.65a4.57,4.57,0,0,0,.25,1.52,4.14,4.14,0,0,0,.71,1.31,3.65,3.65,0,0,0,1.12.9,3.25,3.25,0,0,0,1.48.33,3,3,0,0,0,1.49-.35,3.45,3.45,0,0,0,1.11-.93,4.38,4.38,0,0,0,.69-1.3,4.92,4.92,0,0,0,.23-1.48,4.53,4.53,0,0,0-.25-1.52,3.85,3.85,0,0,0-.71-1.29,3.55,3.55,0,0,0-1.11-.89,3.07,3.07,0,0,0-1.45-.34,3.2,3.2,0,0,0-1.51.35,3.55,3.55,0,0,0-1.11.92,4.24,4.24,0,0,0-.7,1.29A4.73,4.73,0,0,0,257.33,194.77Z"></path><path d="M268,200.34V189.21h4.85a3,3,0,0,1,1.38.31,3.47,3.47,0,0,1,1.09.83,3.84,3.84,0,0,1,.72,1.16,3.56,3.56,0,0,1,.25,1.32,3.69,3.69,0,0,1-.59,2,3.32,3.32,0,0,1-.69.76,3.07,3.07,0,0,1-.89.48l2.61,4.23h-2l-2.41-3.87h-2.57v3.87Zm1.76-5.43h3.07a1.39,1.39,0,0,0,.68-.16,1.63,1.63,0,0,0,.53-.45,2.49,2.49,0,0,0,.34-.67,2.36,2.36,0,0,0,.13-.8,2.15,2.15,0,0,0-.15-.8,2.4,2.4,0,0,0-.39-.66,1.86,1.86,0,0,0-.57-.44,1.41,1.41,0,0,0-.66-.17h-3Z"></path><path d="M278.39,200.34V189.21h1.76v11.13Z"></path><path d="M281.89,199l6.75-8.23H282v-1.55h8.66v1.35l-6.6,8.23h6.61v1.55h-8.82Z"></path><path d="M300.15,198.79v1.55h-7.64V189.21H300v1.55h-5.74v3.17h5v1.46h-5v3.4Z"></path><path d="M302,200.34V189.21h4a5.9,5.9,0,0,1,2.35.44,4.87,4.87,0,0,1,1.7,1.19,5.06,5.06,0,0,1,1,1.76,6.7,6.7,0,0,1,.35,2.16,6.4,6.4,0,0,1-.39,2.29,5.06,5.06,0,0,1-1.08,1.76,5,5,0,0,1-1.71,1.13,6.16,6.16,0,0,1-2.24.4Zm7.59-5.58a5.2,5.2,0,0,0-.24-1.62,3.41,3.41,0,0,0-.72-1.26,3.27,3.27,0,0,0-1.14-.82,3.73,3.73,0,0,0-1.53-.3h-2.2v8h2.2a3.79,3.79,0,0,0,1.55-.31,3.17,3.17,0,0,0,1.15-.85,3.65,3.65,0,0,0,.7-1.27A5.47,5.47,0,0,0,309.55,194.76Z"></path></g></svg>