<svg xmlns="http://www.w3.org/2000/svg" viewBox="0 0 500 500"><g id="freepik--background-complete--inject-1"><rect y="382.4" width="500" height="0.25" style="fill:#ebebeb"></rect><rect x="78.54" y="390.79" width="33.12" height="0.25" style="fill:#ebebeb"></rect><rect x="133.33" y="398" width="30.17" height="0.25" style="fill:#ebebeb"></rect><rect x="56.85" y="400.07" width="38.25" height="0.25" style="fill:#ebebeb"></rect><rect x="434" y="399.53" width="15.9" height="0.25" style="fill:#ebebeb"></rect><rect x="391.47" y="399.53" width="39.32" height="0.25" style="fill:#ebebeb"></rect><rect x="250" y="390.66" width="30.33" height="0.25" style="fill:#ebebeb"></rect><rect x="284.67" y="390.66" width="72.1" height="0.25" style="fill:#ebebeb"></rect><path d="M237,337.8H43.91a5.71,5.71,0,0,1-5.7-5.71V60.66A5.71,5.71,0,0,1,43.91,55H237a5.71,5.71,0,0,1,5.71,5.71V332.09A5.71,5.71,0,0,1,237,337.8ZM43.91,55.2a5.46,5.46,0,0,0-5.45,5.46V332.09a5.46,5.46,0,0,0,5.45,5.46H237a5.47,5.47,0,0,0,5.46-5.46V60.66A5.47,5.47,0,0,0,237,55.2Z" style="fill:#ebebeb"></path><path d="M453.31,337.8H260.21a5.72,5.72,0,0,1-5.71-5.71V60.66A5.72,5.72,0,0,1,260.21,55h193.1A5.71,5.71,0,0,1,459,60.66V332.09A5.71,5.71,0,0,1,453.31,337.8ZM260.21,55.2a5.47,5.47,0,0,0-5.46,5.46V332.09a5.47,5.47,0,0,0,5.46,5.46h193.1a5.47,5.47,0,0,0,5.46-5.46V60.66a5.47,5.47,0,0,0-5.46-5.46Z" style="fill:#ebebeb"></path><rect x="340.19" y="199.2" width="21.67" height="199.67" transform="translate(314.26 -160.62) rotate(45)" style="fill:#ebebeb"></rect><polygon points="361.93 303.45 346.61 288.12 325.72 309.01 339.77 331.42 361.93 303.45" style="fill:#e0e0e0"></polygon><rect x="357.63" y="209.41" width="7.22" height="199.67" transform="translate(398 783.36) rotate(-135)" style="fill:#e0e0e0"></rect><rect x="340.19" y="204.31" width="21.67" height="199.67" transform="translate(-112.25 337.29) rotate(-45)" style="fill:#ebebeb"></rect><rect x="357.63" y="194.09" width="7.22" height="199.67" transform="translate(824.51 246.33) rotate(135)" style="fill:#e0e0e0"></rect><rect x="106.86" y="239.82" width="16.87" height="155.4" transform="translate(258.29 11.48) rotate(45)" style="fill:#ebebeb"></rect><polygon points="123.78 320.95 111.85 309.03 95.6 325.29 106.53 342.72 123.78 320.95" style="fill:#e0e0e0"></polygon><rect x="120.43" y="247.77" width="5.62" height="155.4" transform="translate(-19.76 642.76) rotate(-135)" style="fill:#e0e0e0"></rect><rect x="106.86" y="243.8" width="16.87" height="155.4" transform="translate(-193.56 175.69) rotate(-45)" style="fill:#ebebeb"></rect><rect x="120.43" y="235.85" width="5.62" height="155.4" transform="translate(432.09 448.11) rotate(135)" style="fill:#e0e0e0"></rect><rect x="301.26" y="275.11" width="17.61" height="107.28" style="fill:#f5f5f5"></rect><polygon points="318.87 319.69 301.26 319.69 301.26 332.56 318.87 328.76 318.87 319.69" style="fill:#ebebeb"></polygon><rect x="318.87" y="275.11" width="5.87" height="107.28" transform="translate(643.6 657.51) rotate(180)" style="fill:#ebebeb"></rect><rect x="116.79" y="275.11" width="17.61" height="107.28" style="fill:#f5f5f5"></rect><polygon points="134.39 319.69 116.79 319.69 116.79 332.56 134.39 328.76 134.39 319.69" style="fill:#ebebeb"></polygon><rect x="134.39" y="275.11" width="5.87" height="107.28" transform="translate(274.65 657.51) rotate(180)" style="fill:#ebebeb"></rect><rect x="103.36" y="290.84" width="224.75" height="33.02" style="fill:#f5f5f5"></rect><rect x="328.11" y="290.84" width="3.3" height="33.02" transform="translate(659.52 614.69) rotate(180)" style="fill:#ebebeb"></rect><polygon points="242.73 257.17 198.79 257.17 167.72 288.24 167.72 332.18 198.79 363.25 242.73 363.25 273.8 332.18 273.8 288.24 242.73 257.17" style="fill:#fafafa"></polygon><polygon points="240.72 262.02 200.8 262.02 172.57 290.25 172.57 330.17 200.8 358.4 240.72 358.4 268.95 330.17 268.95 290.25 240.72 262.02" style="fill:#e0e0e0"></polygon><path d="M182.19,314.82l5.62-.5a7.89,7.89,0,0,0,.74,3,2.86,2.86,0,0,0,2.61,1.65,2.36,2.36,0,0,0,2-.84,3,3,0,0,0,.69-2,3,3,0,0,0-.66-1.9,6.5,6.5,0,0,0-3-1.58,11.31,11.31,0,0,1-5.54-3.3,8,8,0,0,1-1.67-5.26,9.4,9.4,0,0,1,.85-4,6.65,6.65,0,0,1,2.57-2.93,8.77,8.77,0,0,1,4.7-1.07,7.55,7.55,0,0,1,5.59,1.94c1.28,1.29,2,3.35,2.29,6.17l-5.57.47a5.14,5.14,0,0,0-.93-2.68,2.47,2.47,0,0,0-2-.83,1.93,1.93,0,0,0-1.55.62,2.27,2.27,0,0,0-.52,1.51,1.75,1.75,0,0,0,.43,1.17,4.1,4.1,0,0,0,2,1,19.67,19.67,0,0,1,5.55,2.4,7.12,7.12,0,0,1,2.44,3,10.19,10.19,0,0,1,.76,4,11.34,11.34,0,0,1-1,4.82,7.58,7.58,0,0,1-2.85,3.36,8.52,8.52,0,0,1-4.6,1.14q-4.87,0-6.75-2.68A12.8,12.8,0,0,1,182.19,314.82Z" style="fill:#fff"></path><path d="M201.17,296.6h18v6.73h-6v20.49h-5.91V303.33h-6Z" style="fill:#fff"></path><path d="M220.14,310.23q0-6.66,2.61-10.38a9.1,9.1,0,0,1,14.62-.06Q240,303.44,240,310a22.76,22.76,0,0,1-1.13,7.83,10.52,10.52,0,0,1-3.26,4.75,8.26,8.26,0,0,1-5.31,1.7,9.15,9.15,0,0,1-5.35-1.47,10.15,10.15,0,0,1-3.44-4.64A20.83,20.83,0,0,1,220.14,310.23Zm5.91,0q0,4.13,1.08,5.92a3.31,3.31,0,0,0,5.87,0c.7-1.18,1-3.29,1-6.33a11.19,11.19,0,0,0-1.08-5.62,3.35,3.35,0,0,0-3-1.77,3.25,3.25,0,0,0-2.87,1.8Q226.05,306.11,226.05,310.27Z" style="fill:#fff"></path><path d="M243.11,296.6h9.82a5.59,5.59,0,0,1,4.81,2.18,10.3,10.3,0,0,1,1.59,6.18,10.51,10.51,0,0,1-1.74,6.44,6.2,6.2,0,0,1-5.31,2.32H249v10.1h-5.93ZM249,308.21h1.45a2.93,2.93,0,0,0,2.4-.85,3.29,3.29,0,0,0,.69-2.16A3.79,3.79,0,0,0,253,303a2.51,2.51,0,0,0-2.25-.89H249Z" style="fill:#fff"></path><path d="M411.35,102.75a13.68,13.68,0,0,0-3.1.37h0c-1.32-3-4.25-4.87-8.2-4.87A15.53,15.53,0,0,0,391.6,101h0c-1.68-5.64-6.71-9.41-13.73-9.41-10,0-20.45,7.64-24.23,17.4a12.12,12.12,0,0,0-2.82-.32l-.94,0c-8.61.58-8,13.58.67,13.58H412a6.77,6.77,0,0,0,5.47-2.75,15.78,15.78,0,0,0,2.39-4.76C421.76,108.12,418,102.75,411.35,102.75Z" style="fill:#f0f0f0"></path><path d="M171.36,45.13c-1.34-8.88-8.42-15.07-18.77-15.07-8.48,0-17.22,4.15-23.73,10.54h0A10,10,0,0,0,122,38.16c-7.18,0-14.71,5.82-16.83,13a13,13,0,0,0-.53,3.26h0l-.15.1c-5.94,4-3,13.39,4.24,13.39H172a7.24,7.24,0,0,0,6.1-3.25,18.66,18.66,0,0,0,2.27-4.88C182.58,52.14,178.61,45.85,171.36,45.13Z" style="fill:#f0f0f0"></path><path d="M246.88,144.3c-1.84-12.21-11.57-20.72-25.8-20.72-11.67,0-23.68,5.71-32.62,14.49h0a13.67,13.67,0,0,0-9.42-3.36c-9.86,0-20.23,8-23.14,17.87a17.88,17.88,0,0,0-.73,4.48l0,0-.2.13c-8.19,5.57-4.13,18.41,5.77,18.41H244a15.74,15.74,0,0,0,15.14-11.06l0-.12C262.32,153.93,256.85,145.28,246.88,144.3Z" style="fill:#f5f5f5"></path></g><g id="freepik--error-unauthorized--inject-1"><path d="M80.44,180.08v-18.2H93.61V164H82.85v5.58H92.92v2.14H82.85v6.19H94v2.15Z" style="fill:#263238"></path><path d="M97.05,180.08V166.89h2v2a5.55,5.55,0,0,1,1.42-1.85,2.45,2.45,0,0,1,1.43-.45,4.37,4.37,0,0,1,2.3.73l-.77,2.07a3.19,3.19,0,0,0-1.64-.48,2.07,2.07,0,0,0-1.31.44,2.4,2.4,0,0,0-.84,1.22,8.94,8.94,0,0,0-.37,2.61v6.9Z" style="fill:#263238"></path><path d="M105.52,180.08V166.89h2v2A5.55,5.55,0,0,1,109,167a2.47,2.47,0,0,1,1.43-.45,4.37,4.37,0,0,1,2.3.73l-.77,2.07a3.19,3.19,0,0,0-1.64-.48,2.07,2.07,0,0,0-1.31.44,2.4,2.4,0,0,0-.84,1.22,8.94,8.94,0,0,0-.37,2.61v6.9Z" style="fill:#263238"></path><path d="M113.18,173.49q0-3.66,2-5.43a6.1,6.1,0,0,1,4.14-1.47,5.91,5.91,0,0,1,4.45,1.79,6.79,6.79,0,0,1,1.73,4.92,8.74,8.74,0,0,1-.77,4,5.38,5.38,0,0,1-2.22,2.26,6.44,6.44,0,0,1-3.19.81,5.93,5.93,0,0,1-4.47-1.77A7.1,7.1,0,0,1,113.18,173.49Zm2.3,0a5.64,5.64,0,0,0,1.1,3.79,3.69,3.69,0,0,0,5.55,0,5.77,5.77,0,0,0,1.11-3.87,5.44,5.44,0,0,0-1.11-3.7,3.7,3.7,0,0,0-5.55,0A5.64,5.64,0,0,0,115.48,173.49Z" style="fill:#263238"></path><path d="M128.13,180.08V166.89h2v2a5.42,5.42,0,0,1,1.42-1.85,2.45,2.45,0,0,1,1.43-.45,4.37,4.37,0,0,1,2.3.73l-.77,2.07a3.22,3.22,0,0,0-1.64-.48,2.1,2.1,0,0,0-1.32.44,2.39,2.39,0,0,0-.83,1.22,8.62,8.62,0,0,0-.37,2.61v6.9Z" style="fill:#263238"></path><path d="M88.75,202.69v-1.94A4.84,4.84,0,0,1,84.56,203a5.27,5.27,0,0,1-2.17-.45,3.62,3.62,0,0,1-1.51-1.12,4.54,4.54,0,0,1-.69-1.66,11.66,11.66,0,0,1-.13-2.09V189.5h2.23v7.31a13,13,0,0,0,.14,2.36,2.37,2.37,0,0,0,.89,1.39,2.82,2.82,0,0,0,1.69.5,3.72,3.72,0,0,0,1.89-.51,2.94,2.94,0,0,0,1.25-1.41,7.13,7.13,0,0,0,.36-2.57V189.5h2.24v13.19Z" style="fill:#263238"></path><path d="M94.25,202.69V189.5h2v1.87a4.76,4.76,0,0,1,4.2-2.17,5.38,5.38,0,0,1,2.19.43,3.49,3.49,0,0,1,1.5,1.12,4.53,4.53,0,0,1,.7,1.66,13.12,13.12,0,0,1,.12,2.17v8.11h-2.23v-8a5.84,5.84,0,0,0-.27-2,2.14,2.14,0,0,0-.92-1.08,2.92,2.92,0,0,0-1.56-.4,3.67,3.67,0,0,0-2.47.9c-.69.61-1,1.76-1,3.45v7.2Z" style="fill:#263238"></path><path d="M117,201.06a8.2,8.2,0,0,1-2.4,1.49,6.84,6.84,0,0,1-2.46.44,4.79,4.79,0,0,1-3.34-1.07,3.48,3.48,0,0,1-1.17-2.71,3.64,3.64,0,0,1,1.6-3.05,5.28,5.28,0,0,1,1.61-.74,17.67,17.67,0,0,1,2-.33,20.57,20.57,0,0,0,4-.77c0-.31,0-.5,0-.59a2.46,2.46,0,0,0-.63-1.92,3.72,3.72,0,0,0-2.55-.76,4,4,0,0,0-2.33.55,3.38,3.38,0,0,0-1.11,2l-2.18-.3a5.22,5.22,0,0,1,1-2.26,4.23,4.23,0,0,1,2-1.33,8.81,8.81,0,0,1,3-.47,7.8,7.8,0,0,1,2.75.4,3.59,3.59,0,0,1,1.55,1,3.51,3.51,0,0,1,.7,1.52,13.2,13.2,0,0,1,.11,2.06v3a33.25,33.25,0,0,0,.14,4,5.18,5.18,0,0,0,.57,1.58h-2.34A4.7,4.7,0,0,1,117,201.06Zm-.19-5a16.41,16.41,0,0,1-3.65.84,8.56,8.56,0,0,0-2,.45,1.93,1.93,0,0,0-.88.73,1.88,1.88,0,0,0-.31,1.06,1.91,1.91,0,0,0,.67,1.49,2.89,2.89,0,0,0,2,.6,4.59,4.59,0,0,0,2.3-.57,3.51,3.51,0,0,0,1.48-1.55,5.37,5.37,0,0,0,.36-2.23Z" style="fill:#263238"></path><path d="M131.19,202.69v-1.94A4.84,4.84,0,0,1,127,203a5.35,5.35,0,0,1-2.18-.45,3.65,3.65,0,0,1-1.5-1.12,4.22,4.22,0,0,1-.69-1.66,11.45,11.45,0,0,1-.14-2.09V189.5h2.24v7.31a13,13,0,0,0,.14,2.36,2.37,2.37,0,0,0,.89,1.39,2.82,2.82,0,0,0,1.69.5,3.72,3.72,0,0,0,1.89-.51,2.94,2.94,0,0,0,1.25-1.41,7.13,7.13,0,0,0,.36-2.57V189.5h2.24v13.19Z" style="fill:#263238"></path><path d="M141.57,200.69l.33,2a7.86,7.86,0,0,1-1.69.2,3.9,3.9,0,0,1-1.89-.38,2.22,2.22,0,0,1-.95-1,8,8,0,0,1-.27-2.63v-7.59h-1.64V189.5h1.64v-3.27l2.22-1.34v4.61h2.25v1.74h-2.25V199a3.82,3.82,0,0,0,.12,1.23.9.9,0,0,0,.39.43,1.45,1.45,0,0,0,.76.17A6.92,6.92,0,0,0,141.57,200.69Z" style="fill:#263238"></path><path d="M143.76,202.69V184.48H146V191a5,5,0,0,1,3.95-1.81,5.28,5.28,0,0,1,2.55.58,3.45,3.45,0,0,1,1.55,1.59,7.41,7.41,0,0,1,.46,3v8.36h-2.23v-8.36a3.47,3.47,0,0,0-.73-2.44,2.71,2.71,0,0,0-2.06-.76,3.68,3.68,0,0,0-1.87.51,2.9,2.9,0,0,0-1.24,1.4,6.37,6.37,0,0,0-.38,2.43v7.22Z" style="fill:#263238"></path><path d="M157.07,196.09q0-3.66,2-5.42a6.12,6.12,0,0,1,4.15-1.47A5.94,5.94,0,0,1,167.7,191a6.79,6.79,0,0,1,1.73,4.93,8.84,8.84,0,0,1-.76,4,5.36,5.36,0,0,1-2.23,2.27,6.43,6.43,0,0,1-3.18.81,5.91,5.91,0,0,1-4.48-1.78A7.09,7.09,0,0,1,157.07,196.09Zm2.3,0a5.67,5.67,0,0,0,1.1,3.8,3.56,3.56,0,0,0,2.79,1.26,3.51,3.51,0,0,0,2.77-1.27,5.77,5.77,0,0,0,1.1-3.86,5.46,5.46,0,0,0-1.11-3.71,3.69,3.69,0,0,0-5.55,0A5.59,5.59,0,0,0,159.37,196.09Z" style="fill:#263238"></path><path d="M172,202.69V189.5h2v2a5.32,5.32,0,0,1,1.42-1.85,2.45,2.45,0,0,1,1.43-.45,4.36,4.36,0,0,1,2.3.72l-.77,2.08a3.12,3.12,0,0,0-1.64-.49,2.11,2.11,0,0,0-1.31.44,2.45,2.45,0,0,0-.84,1.22,9,9,0,0,0-.37,2.61v6.91Z" style="fill:#263238"></path><path d="M180.53,187.05v-2.57h2.24v2.57Zm0,15.64V189.5h2.24v13.19Z" style="fill:#263238"></path><path d="M185,202.69v-1.81l8.4-9.64c-1,0-1.8.07-2.52.07h-5.38V189.5h10.78V191l-7.14,8.37-1.38,1.53q1.5-.12,2.82-.12h6.1v1.93Z" style="fill:#263238"></path><path d="M207.92,198.44l2.31.29a5.66,5.66,0,0,1-2,3.14,6.1,6.1,0,0,1-3.77,1.12,6,6,0,0,1-4.59-1.79,6.94,6.94,0,0,1-1.7-5,7.3,7.3,0,0,1,1.72-5.17,5.77,5.77,0,0,1,4.44-1.84,5.65,5.65,0,0,1,4.33,1.8,7.19,7.19,0,0,1,1.67,5.07c0,.13,0,.33,0,.6h-9.84a5.14,5.14,0,0,0,1.23,3.32,3.68,3.68,0,0,0,2.76,1.16,3.43,3.43,0,0,0,2.1-.65A4.3,4.3,0,0,0,207.92,198.44Zm-7.34-3.61h7.36a4.5,4.5,0,0,0-.84-2.5,3.43,3.43,0,0,0-2.77-1.29,3.54,3.54,0,0,0-2.59,1A4.07,4.07,0,0,0,200.58,194.83Z" style="fill:#263238"></path><path d="M221.59,202.69V201a4.09,4.09,0,0,1-3.69,2,5.19,5.19,0,0,1-2.9-.87,5.77,5.77,0,0,1-2.05-2.43,8.44,8.44,0,0,1-.72-3.58,9.41,9.41,0,0,1,.66-3.59,5.11,5.11,0,0,1,2-2.46,5.3,5.3,0,0,1,2.94-.86,4.47,4.47,0,0,1,2.13.5,4.58,4.58,0,0,1,1.51,1.31v-6.53h2.23v18.21Zm-7.06-6.58a5.7,5.7,0,0,0,1.06,3.78,3.24,3.24,0,0,0,2.52,1.26,3.15,3.15,0,0,0,2.49-1.2,5.49,5.49,0,0,0,1-3.66,6.22,6.22,0,0,0-1-4,3.21,3.21,0,0,0-2.57-1.27,3.09,3.09,0,0,0-2.49,1.22A6,6,0,0,0,214.53,196.11Z" style="fill:#263238"></path></g></svg>