<svg xmlns="http://www.w3.org/2000/svg" viewBox="0 0 750 500"><g id="freepik--Floor--inject-63"><path d="M34.28,300.28c0-.14,152.56-.26,340.7-.26s340.74.12,340.74.26-152.53.26-340.74.26S34.28,300.43,34.28,300.28Z" style="fill: #263238"></path></g><g id="freepik--drawing-2--inject-63"><polygon points="470.72 406.95 514.51 420.5 556.24 386.67 512.86 378.05 470.72 406.95" style="fill: #fff"></polygon><path d="M470.72,407a.82.82,0,0,1,.18-.14l.56-.39,2.23-1.56c2-1.37,4.87-3.37,8.52-5.91l30.52-21.1.08-.05.1,0,43.38,8.58.54.11-.43.35-1.64,1.33-40.11,32.47-.1.07-.11,0-31.83-10-8.82-2.78-2.3-.73-.77-.25,43.85,13.33-.2,0,40.06-32.53,1.64-1.33.12.45-43.37-8.64.17,0Z" style="fill: #263238"></path><path d="M531.43,388.44a14.94,14.94,0,0,1-1.68-.48,45.44,45.44,0,0,0-4.62-1.13,27.2,27.2,0,0,0-7-.44A19.1,19.1,0,0,0,510,388.8a14.38,14.38,0,0,0-5.86,6,13,13,0,0,0-1.28,6.75,11.25,11.25,0,0,0,1.33,4.49c.54,1,1,1.44.92,1.47s-.12-.1-.32-.32a7.46,7.46,0,0,1-.78-1.05,11,11,0,0,1-1.52-4.55,13.17,13.17,0,0,1,1.22-7,14.78,14.78,0,0,1,6-6.26,19.27,19.27,0,0,1,8.36-2.43,26.58,26.58,0,0,1,7.09.56,35.07,35.07,0,0,1,4.61,1.3c.53.19.94.35,1.21.47S531.44,388.42,531.43,388.44Z" style="fill: #263238"></path><path d="M527.64,389c0,.11-2-.53-5.29-.75a21.81,21.81,0,0,0-5.73.41,16.67,16.67,0,0,0-6.36,2.85,13.45,13.45,0,0,0-4.36,5.36,12.4,12.4,0,0,0-1,5.58,12.79,12.79,0,0,0,1.48,5.06s-.09-.09-.24-.3a6.45,6.45,0,0,1-.55-.92,10.39,10.39,0,0,1-1-3.81,12.41,12.41,0,0,1,.92-5.8A13.6,13.6,0,0,1,510,391a16.64,16.64,0,0,1,6.58-2.9,20.68,20.68,0,0,1,5.85-.3,24.74,24.74,0,0,1,3.89.66A6.31,6.31,0,0,1,527.64,389Z" style="fill: #455a64"></path><path d="M523.12,393.22a19.06,19.06,0,0,0-3-.71,9.66,9.66,0,0,0-10.75,8.06,19.19,19.19,0,0,0-.16,3.1,2.35,2.35,0,0,1-.21-.82,8.64,8.64,0,0,1,0-2.34,9.67,9.67,0,0,1,11.16-8.37,8.88,8.88,0,0,1,2.24.65A2.3,2.3,0,0,1,523.12,393.22Z" style="fill: #ffbf9d"></path><path d="M525.31,391.54a37.87,37.87,0,0,0-4.21-.71,15.38,15.38,0,0,0-4.56.31,12.42,12.42,0,0,0-5,2.38,10.53,10.53,0,0,0-3.3,4.41,9.86,9.86,0,0,0-.59,4.47,10.77,10.77,0,0,0,1.34,4s-.09-.07-.21-.22a5.26,5.26,0,0,1-.48-.71,8.13,8.13,0,0,1-1-3,9.75,9.75,0,0,1,.5-4.69,10.61,10.61,0,0,1,3.42-4.64,12.6,12.6,0,0,1,5.23-2.45,15.36,15.36,0,0,1,4.7-.21,15.86,15.86,0,0,1,3.09.65A3.9,3.9,0,0,1,525.31,391.54Z" style="fill: #fca311"></path><path d="M512.35,404.26a3.25,3.25,0,0,0-4.17-.21,3.55,3.55,0,0,0-.89,4.21,3,3,0,0,0-3.49-1.07,2.73,2.73,0,0,0-1.37,3.38,2.27,2.27,0,0,0,3.29,1,1.7,1.7,0,0,0-.09,2.36,3,3,0,0,0,2.36.87,3.75,3.75,0,0,0,2.56-.93,2.5,2.5,0,0,0,.67-2.62,2.07,2.07,0,0,0,3-.32,2.29,2.29,0,0,0-.51-3,1.78,1.78,0,0,0,.84-2.64,1.84,1.84,0,0,0,.06-3,1.74,1.74,0,0,0-2.44,1.65" style="fill: #fff"></path><path d="M512.13,403.9a1.13,1.13,0,0,1,0-.5,1.87,1.87,0,0,1,.84-1.16,1.74,1.74,0,0,1,1-.28,1.43,1.43,0,0,1,1.12.62,2,2,0,0,1,.36,1.43,1.81,1.81,0,0,1-.89,1.42l.06-.27a2,2,0,0,1-.93,2.95l.07-.37a2.49,2.49,0,0,1,.69,3.17,2.31,2.31,0,0,1-3.43.56l.4-.28a2.83,2.83,0,0,1-1.37,3.38,4.44,4.44,0,0,1-1.92.52,3.9,3.9,0,0,1-2-.4,2,2,0,0,1-.58-3.29l.31.41a2.51,2.51,0,0,1-3.3-.54,2.82,2.82,0,0,1,2.55-4.5,3.29,3.29,0,0,1,2.33,1.38l-.34.21a3.75,3.75,0,0,1,.37-3.8,3.26,3.26,0,0,1,4.39-.74,1.6,1.6,0,0,1,.37.31c.08.08.12.12.11.13s-.18-.14-.54-.34a3.33,3.33,0,0,0-1.72-.41,3,3,0,0,0-2.35,1.24,3.43,3.43,0,0,0-.27,3.42l-.35.21a2.89,2.89,0,0,0-2.05-1.17A2.38,2.38,0,0,0,503,411a2,2,0,0,0,2.6.45l.31.41a1.26,1.26,0,0,0-.37,1.28,1.66,1.66,0,0,0,.89,1.15,4,4,0,0,0,3.44-.12,2.32,2.32,0,0,0,1.16-2.74l-.39-1,.78.7a1.84,1.84,0,0,0,2.7-.42,2.08,2.08,0,0,0-.53-2.6l-.36-.25.42-.12a1.6,1.6,0,0,0,.75-2.33l-.13-.17.19-.1a1.73,1.73,0,0,0,.47-2.37,1.35,1.35,0,0,0-1.82-.33,1.79,1.79,0,0,0-.85,1C512.14,403.72,512.16,403.9,512.13,403.9Z" style="fill: #263238"></path><path d="M525.25,390.09a2.53,2.53,0,1,0,.41,5.05,1.09,1.09,0,0,0-.27,1.47,1.85,1.85,0,0,0,1.38.79,3.22,3.22,0,0,0,3-1.36,3.53,3.53,0,0,0,.24-3.42,1.91,1.91,0,0,0,2.79.2,2.08,2.08,0,0,0-.13-2.89,2.5,2.5,0,0,0,1.71-3,52.82,52.82,0,0,1-5.75-3.58,2.48,2.48,0,0,0-1.63,3,1.81,1.81,0,0,0-2.67.69,1.93,1.93,0,0,0,1.28,2.53" style="fill: #fff"></path><path d="M525.63,389.62a.86.86,0,0,1-.43-.11,1.88,1.88,0,0,1-.89-.92,1.84,1.84,0,0,1,.2-2,2,2,0,0,1,2.62-.33l-.29.2a2.7,2.7,0,0,1,1.44-3.17,2.59,2.59,0,0,1,3.43,1.93l-.3-.18a2.67,2.67,0,0,1,3.2,1.73,2.76,2.76,0,0,1-1.86,3.41l.11-.45a2.37,2.37,0,0,1,.39,3,1.92,1.92,0,0,1-1.06.8,2.19,2.19,0,0,1-2.36-.71l.43-.27a3.78,3.78,0,0,1,.08,3,3.42,3.42,0,0,1-2,1.95,3,3,0,0,1-2.62-.22,1.37,1.37,0,0,1-.13-2.27l.13.36a2.74,2.74,0,0,1-2.82-1.79,2.67,2.67,0,0,1,1.81-3.42,2.08,2.08,0,0,1,.43-.05c.09,0,.14,0,.14,0s-.19,0-.54.14a2.65,2.65,0,0,0-1.22.92,2.35,2.35,0,0,0-.33,2.27,2.41,2.41,0,0,0,2.47,1.52l1-.14-.9.51a.8.8,0,0,0-.32.77,1.05,1.05,0,0,0,.51.8,2.53,2.53,0,0,0,2.21.14,3,3,0,0,0,1.74-1.7,3.29,3.29,0,0,0-.09-2.59l.44-.26A1.68,1.68,0,0,0,532,393a1.57,1.57,0,0,0,1.05-1.59,1.74,1.74,0,0,0-.56-1.28l-.39-.33.5-.12a2.25,2.25,0,0,0,1.49-2.75,2.17,2.17,0,0,0-2.57-1.43l-.26.08,0-.27a2.15,2.15,0,0,0-2.79-1.63,2.32,2.32,0,0,0-1.26,2.67l.16.55-.45-.36a1.6,1.6,0,0,0-2.41,2,1.84,1.84,0,0,0,.76.91C525.48,389.56,525.63,389.59,525.63,389.62Z" style="fill: #263238"></path><path d="M496.43,406.27a12.09,12.09,0,0,1-2.73-2.37,12.9,12.9,0,0,1-2.35-2.75,12.65,12.65,0,0,1,2.72,2.38A13,13,0,0,1,496.43,406.27Z" style="fill: #263238"></path><path d="M496.12,402.15a7.3,7.3,0,0,1-2.18,1.68,7.45,7.45,0,0,1-2.47,1.24,7.46,7.46,0,0,1,2.19-1.68A7.7,7.7,0,0,1,496.12,402.15Z" style="fill: #263238"></path><path d="M493.63,406.85a8.72,8.72,0,0,1-.11-3.2,8.85,8.85,0,0,1,.57-3.15,28.14,28.14,0,0,1-.46,6.35Z" style="fill: #263238"></path><path d="M496.71,404.47a18.78,18.78,0,0,1-2.84-.5,17.51,17.51,0,0,1-2.85-.45,5.57,5.57,0,0,1,2.93-.06A5.31,5.31,0,0,1,496.71,404.47Z" style="fill: #263238"></path><path d="M519,384.14a5,5,0,0,1-2.29-.86c-1.19-.65-2-1.35-2-1.47a6.88,6.88,0,0,1,2.21,1C518.08,383.46,519,384,519,384.14Z" style="fill: #263238"></path><path d="M517.44,381.78c.12.08-.3.93-1.06,1.81s-1.56,1.4-1.65,1.3.52-.8,1.25-1.64S517.32,381.7,517.44,381.78Z" style="fill: #263238"></path><path d="M516.67,385a4.24,4.24,0,0,1-.49-2,4.14,4.14,0,0,1,0-2c.14,0,.36.86.49,2A4.19,4.19,0,0,1,516.67,385Z" style="fill: #263238"></path><path d="M519.29,382.91a4.08,4.08,0,0,1-2.23.57,4,4,0,0,1-2.28-.26,24.2,24.2,0,0,1,4.51-.31Z" style="fill: #263238"></path><path d="M521.9,403.56c-.12.07-.63-.64-1-1.64s-.5-1.85-.36-1.89.47.74.84,1.71S522,403.49,521.9,403.56Z" style="fill: #ffbf9d"></path><path d="M523.81,401.51a7,7,0,0,1-2.48,1,6.85,6.85,0,0,1-2.62.52,7.14,7.14,0,0,1,2.47-1A7,7,0,0,1,523.81,401.51Z" style="fill: #ffbf9d"></path><path d="M523.47,403.49a6.15,6.15,0,0,1-2.23-1.08c-1.16-.72-2-1.4-2-1.52a6.08,6.08,0,0,1,2.24,1.08C522.67,402.69,523.55,403.37,523.47,403.49Z" style="fill: #ffbf9d"></path><path d="M522,400.22a6,6,0,0,1-.66,2.36,5.77,5.77,0,0,1-1.14,2.17,5.93,5.93,0,0,1,.66-2.36A5.77,5.77,0,0,1,522,400.22Z" style="fill: #ffbf9d"></path><path d="M498.36,395.4c-.07.12-.59-.06-1.15-.4s-.95-.72-.87-.85.59.06,1.15.4S498.44,395.27,498.36,395.4Z" style="fill: #ffbf9d"></path><path d="M498.24,393.76c.1.1-.3.69-.89,1.32s-1.17,1.06-1.27,1,.29-.69.89-1.32S498.13,393.66,498.24,393.76Z" style="fill: #ffbf9d"></path><path d="M497.39,396.17c-.14,0-.27-.54-.3-1.23s.08-1.24.23-1.25.27.55.29,1.23S497.54,396.17,497.39,396.17Z" style="fill: #ffbf9d"></path><path d="M499.15,395.1c0,.14-.85.29-1.92.32s-1.93-.06-1.93-.2.85-.29,1.92-.32S499.15,395,499.15,395.1Z" style="fill: #ffbf9d"></path></g><g id="freepik--drawing-1--inject-63"><polygon points="185.94 335.51 196.89 307.75 258.94 306.97 275.4 334.12 185.94 335.51" style="fill: #f5f5f5"></polygon><path d="M185.94,335.51l.47,0,1.33,0,5.11-.11,18.89-.36,63.65-1.12-.21.39-8.86-14.6-7.6-12.54.22.12-62.05.7.17-.11c-3.43,8.56-6.19,15.46-8.1,20.24-1,2.38-1.7,4.23-2.22,5.51l-.58,1.44-.22.5s.05-.16.17-.47l.54-1.42c.5-1.27,1.21-3.12,2.12-5.49l7.95-20.44.05-.12h.12l62.05-.86h.14l.08.13c2.47,4.07,5,8.27,7.6,12.54,3,5,6,9.91,8.86,14.61l.23.38h-.45l-63.88.86-18.81.22-5,.05h-1.73Z" style="fill: #263238"></path><polygon points="194.77 331.15 205.72 303.4 267.77 302.62 284.23 329.77 194.77 331.15" style="fill: #fff"></polygon><path d="M194.77,331.16l.47,0,1.33,0,5.11-.11,18.89-.36,63.65-1.12-.21.39-8.86-14.6-7.6-12.55.22.13-62,.7.17-.11c-3.43,8.56-6.19,15.46-8.1,20.24-1,2.38-1.71,4.23-2.22,5.51l-.59,1.44c-.13.32-.21.5-.21.5s0-.16.17-.48l.54-1.41c.49-1.27,1.21-3.12,2.12-5.49l8-20.45,0-.11h.13l62-.86h.15l.08.13c2.47,4.07,5,8.27,7.6,12.54,3,5,6,9.91,8.85,14.61l.24.38h-.45l-63.88.86-18.81.22-5,.05h-1.72Z" style="fill: #263238"></path><path d="M235,307.94a4.33,4.33,0,0,1,.55.37c.35.26.85.66,1.48,1.19a38.87,38.87,0,0,1,4.88,5,36.69,36.69,0,0,1,2.81,4,6.71,6.71,0,0,1,1,2.59,3.62,3.62,0,0,1-.83,2.84,3.32,3.32,0,0,1-3,.9,8.11,8.11,0,0,1-3-1.1,15.51,15.51,0,0,1-4.92-4.44l-.09-.13.47-.11a8.56,8.56,0,0,1-3.15,5.77,5,5,0,0,1-6-.12,3.64,3.64,0,0,1-1.27-2.64,7,7,0,0,1,.49-2.7,20.53,20.53,0,0,1,2.22-4.29,21,21,0,0,1,4.82-5,17,17,0,0,1,1.59-1,3,3,0,0,1,.59-.3,2.93,2.93,0,0,1-.53.38c-.36.25-.88.61-1.52,1.11a21.85,21.85,0,0,0-4.64,5.06,20.89,20.89,0,0,0-2.13,4.23,6.58,6.58,0,0,0-.43,2.53,3.13,3.13,0,0,0,1.12,2.31,4.5,4.5,0,0,0,5.37.06,8.07,8.07,0,0,0,2.92-5.43l.1-.62.37.51.09.13a15,15,0,0,0,4.75,4.29,7.61,7.61,0,0,0,2.81,1.06,2.87,2.87,0,0,0,2.55-.74,3.18,3.18,0,0,0,.73-2.46,6.17,6.17,0,0,0-.87-2.42,38.52,38.52,0,0,0-2.73-3.94,42.79,42.79,0,0,0-4.72-5.09l-1.41-1.26A3.23,3.23,0,0,1,235,307.94Z" style="fill: #263238"></path><path d="M234.51,313a4.22,4.22,0,0,1-.21.75c-.16.48-.41,1.19-.76,2.1A61.49,61.49,0,0,1,230,323.3l-.68,1.24.34-1.38a52.86,52.86,0,0,1,4.2-11.11l.43.22A75.46,75.46,0,0,1,228,322.84l-.45-.26,1-2.29,3.82-8.45.44.25a73.22,73.22,0,0,0-6.41,11.33l-.38-.16a55.25,55.25,0,0,1,5.23-10.07c.75-1.13,1.38-2,1.82-2.56l.51-.64a1.69,1.69,0,0,1,.19-.21,6.65,6.65,0,0,1-.6.93c-.41.59-1,1.46-1.72,2.61a58.4,58.4,0,0,0-5,10.09l-.39-.16a70.15,70.15,0,0,1,6.38-11.45l.43.25L229,320.5l-1,2.3-.45-.26a77.62,77.62,0,0,0,6.34-10.48l.43.21a55,55,0,0,0-4.27,11l-.34-.13a69.39,69.39,0,0,0,3.65-7.36c.35-.86.63-1.54.85-2.05A4.66,4.66,0,0,1,234.51,313Z" style="fill: #fca311"></path><path d="M226.66,322.06a5.93,5.93,0,0,1,.36-1.93,26.11,26.11,0,0,1,1.66-4.43,27.08,27.08,0,0,1,2.39-4.09,6.21,6.21,0,0,1,1.26-1.49c.13.09-1.62,2.5-3.18,5.8S226.81,322.1,226.66,322.06Z" style="fill: #fca311"></path><path d="M225.5,322.88a4.91,4.91,0,0,1-.22-1.95,11.33,11.33,0,0,1,4.1-8.32,4.83,4.83,0,0,1,1.68-1c.05.08-.57.48-1.43,1.29a12.82,12.82,0,0,0-4,8.06A16.36,16.36,0,0,1,225.5,322.88Z" style="fill: #fca311"></path><path d="M243,323.84a1.51,1.51,0,0,1,.05-.33c0-.21.09-.52.13-.94a11.19,11.19,0,0,0-.18-3.66h.2c-.42,1.31-.92,2.9-1.5,4.72l-.38,1.23.11-1.29a20.79,20.79,0,0,0-.25-5.36h.34c-.29,1.46-.59,3-.91,4.66l-.38,0c.08-2.08.18-4.34.28-6.72l.42.07c-.45,1.91-.94,3.95-1.44,6.06l-.54,2.23.08-2.3c.08-2.37.16-4.87.25-7.45l.49.06c-.44,2.28-.91,4.69-1.39,7.17l-.5-.08c.33-2.85.68-5.84,1-8.89l.51.11c-.34,1-.7,2.16-1.06,3.28q-.76,2.39-1.52,4.74l-.51-.12c.4-2.68.8-5.31,1.18-7.88l.5.08a32.07,32.07,0,0,1-2,7.18l-.67,1.66.2-1.78q.5-4.26.93-8.18l.45.11-2.75,7.68-.4-.12,1.88-8.5.32.1-2.54,6.24-.24-.08,1.58-5.74c.18-.63.33-1.12.43-1.48a2.51,2.51,0,0,1,.17-.5,2.93,2.93,0,0,1-.1.51c-.09.37-.21.87-.37,1.5-.34,1.35-.83,3.29-1.47,5.78l-.24-.08c.7-1.77,1.51-3.85,2.46-6.28l.33.1c-.54,2.54-1.14,5.39-1.81,8.52l-.39-.11,2.71-7.7.66-1.88-.22,2c-.29,2.6-.59,5.33-.9,8.17l-.47-.11a32.38,32.38,0,0,0,1.93-7.08l.5.08c-.38,2.56-.77,5.19-1.16,7.87l-.51-.11q.75-2.35,1.53-4.74l1.05-3.28.51.11c-.36,3.05-.71,6-1,8.89l-.5-.08c.48-2.47,1-4.89,1.4-7.17l.49.06c-.1,2.58-.19,5.08-.28,7.45l-.46-.06c.52-2.11,1-4.14,1.48-6.06l.43.06c-.11,2.38-.22,4.64-.32,6.71l-.39,0c.34-1.64.65-3.2.95-4.65l.18-.91.16.91a20.4,20.4,0,0,1,.19,5.45l-.28-.06c.61-1.81,1.14-3.39,1.57-4.69l.12-.38.08.39a11,11,0,0,1,.09,3.71c-.06.42-.14.74-.19.95A2,2,0,0,1,243,323.84Z" style="fill: #fca311"></path><path d="M231.08,322.18s0,.62-.59,1.35a3.49,3.49,0,0,1-6-1,1.89,1.89,0,0,1-.13-1.46c.09,0,.08.56.47,1.31a3.3,3.3,0,0,0,5.4.88C230.83,322.69,231,322.15,231.08,322.18Z" style="fill: #fca311"></path><path d="M232.66,320.58c.06,0,.09.55-.33,1.3a3.58,3.58,0,0,1-5.73.75c-.59-.61-.7-1.15-.65-1.17s.31.41.9.9a3.47,3.47,0,0,0,5.17-.68C232.47,321.06,232.58,320.56,232.66,320.58Z" style="fill: #fca311"></path><path d="M239.93,318c-.14.06-1.07-1.87-2.55-4s-2.9-3.76-2.79-3.87a17.23,17.23,0,0,1,5.34,7.91Z" style="fill: #fca311"></path><path d="M242.21,318.82c-.14.06-1.35-2.5-3.11-5.5s-3.38-5.33-3.26-5.42a23.54,23.54,0,0,1,3.71,5.15A23.2,23.2,0,0,1,242.21,318.82Z" style="fill: #fca311"></path><path d="M243.35,318.17c-.14.07-1.48-2.35-3.68-4.92s-4.38-4.28-4.28-4.41a21.24,21.24,0,0,1,8,9.33Z" style="fill: #fca311"></path><path d="M259.86,317.38c.05,0-.43.71-1.64,1.11a4.37,4.37,0,0,1-2.2.15,3.53,3.53,0,0,1-1.26-.47,1.62,1.62,0,0,1-.82-1.29,1.73,1.73,0,0,1,.74-1.35,2.45,2.45,0,0,1,1.28-.47,4,4,0,0,1,2.17.43,4.33,4.33,0,0,1,1.58,1.21c0,.08-.66-.4-1.73-.87a3.85,3.85,0,0,0-2-.3,2.26,2.26,0,0,0-1,.41,1.22,1.22,0,0,0-.53.93,1.18,1.18,0,0,0,.58.88,3.27,3.27,0,0,0,1.07.42,4.31,4.31,0,0,0,2,0A8.6,8.6,0,0,0,259.86,317.38Z" style="fill: #263238"></path><path d="M263.07,317.86a3,3,0,0,1,1,0,4.78,4.78,0,0,1,1.15.3,2.58,2.58,0,0,1,1.25,1,1.83,1.83,0,0,1,.1,2,2.52,2.52,0,0,1-2,1.09,3.25,3.25,0,0,1-3.47-3.22,2.81,2.81,0,0,1,0-.29.25.25,0,0,1,.27-.24.26.26,0,0,1,.24.19h0a6.29,6.29,0,0,1,.31,2.55,2.43,2.43,0,0,1-1.47,2,1.84,1.84,0,0,1-2.08-.75,2.38,2.38,0,0,1-.35-1.9,4.36,4.36,0,0,1,1.43-2.26,3.2,3.2,0,0,1,.78-.58,5.16,5.16,0,0,1-.64.73,4.43,4.43,0,0,0-1.21,2.18,2,2,0,0,0,.33,1.57,1.4,1.4,0,0,0,1.58.56,2,2,0,0,0,1.13-1.59,6,6,0,0,0-.32-2.35l.52-.05a2,2,0,0,0,0,.25,2.8,2.8,0,0,0,.93,2,2.86,2.86,0,0,0,2,.7,2.08,2.08,0,0,0,1.64-.84,1.45,1.45,0,0,0,0-1.55,3.22,3.22,0,0,0-2.12-1.3A4.51,4.51,0,0,1,263.07,317.86Z" style="fill: #263238"></path><path d="M261.85,316.38c-.05,0,.39-.76,1.52-1.46a6.27,6.27,0,0,1,2.17-.82,4.59,4.59,0,0,1,1.4-.05,1.38,1.38,0,0,1,1.22,1.09,1.8,1.8,0,0,1-.68,1.46,4.73,4.73,0,0,1-1.16.78,5.06,5.06,0,0,1-2.28.48,3.19,3.19,0,0,1-2-.62,11.18,11.18,0,0,0,2,.25,5.06,5.06,0,0,0,2.07-.54,4.36,4.36,0,0,0,1-.72,1.35,1.35,0,0,0,.52-1,.9.9,0,0,0-.8-.66,4.69,4.69,0,0,0-1.24,0,6.48,6.48,0,0,0-2.06.66C262.44,315.82,261.91,316.44,261.85,316.38Z" style="fill: #263238"></path><path d="M260,316a2.67,2.67,0,0,1-.63-1.9A3.91,3.91,0,0,1,260,312a4.14,4.14,0,0,1,.88-1,2.44,2.44,0,0,1,1.38-.58,1.47,1.47,0,0,1,1.34.77,2.39,2.39,0,0,1,.28,1.35,5.85,5.85,0,0,1-.52,2.14,3.4,3.4,0,0,1-1.2,1.6c-.06-.06.45-.63.86-1.74a5.9,5.9,0,0,0,.38-2,1.89,1.89,0,0,0-.24-1.08,1,1,0,0,0-.88-.51,2.77,2.77,0,0,0-1.87,1.32,3.72,3.72,0,0,0-.63,1.89A7.77,7.77,0,0,0,260,316Z" style="fill: #263238"></path><path d="M260.79,316s.13-.08.38-.08a1.61,1.61,0,0,1,1,.39,1.4,1.4,0,0,1,.33,1.64,1.58,1.58,0,0,1-1.91.65,1.88,1.88,0,0,1-1.4-1.47,1.28,1.28,0,0,1,.25-.92,1.34,1.34,0,0,1,.7-.44,2,2,0,0,1,1.08.07c.23.08.35.16.34.19s-.15,0-.38,0a2.11,2.11,0,0,0-.93.09.81.81,0,0,0-.58.94,1.42,1.42,0,0,0,1.07,1,1.12,1.12,0,0,0,1.34-.38,1,1,0,0,0-.17-1.14C261.39,316,260.77,316.11,260.79,316Z" style="fill: #263238"></path><path d="M246.89,311s-.29.53-1.16.84a3.14,3.14,0,0,1-1.59.12,2.26,2.26,0,0,1-.91-.34,1.23,1.23,0,0,1-.62-1,1.53,1.53,0,0,1,1.5-1.36,2.88,2.88,0,0,1,1.57.33c.78.44,1.13.86,1.09.91a10.27,10.27,0,0,1-1.24-.57,2.61,2.61,0,0,0-1.36-.19,1.48,1.48,0,0,0-.7.28.77.77,0,0,0-.34.59c0,.45.62.76,1.11.86a3.09,3.09,0,0,0,1.39,0C246.43,311.31,246.83,310.94,246.89,311Z" style="fill: #263238"></path><path d="M249.16,311.35a1.67,1.67,0,0,1,.71,0,2.3,2.3,0,0,1,1.74.93,1.36,1.36,0,0,1,.08,1.46,1.85,1.85,0,0,1-1.46.81,2.38,2.38,0,0,1-2.54-2.35,1.46,1.46,0,0,1,0-.21.26.26,0,0,1,.27-.25.25.25,0,0,1,.24.19h0a4.53,4.53,0,0,1,.23,1.84,1.8,1.8,0,0,1-1.1,1.45,1.36,1.36,0,0,1-1.55-.56,1.74,1.74,0,0,1-.25-1.39,3,3,0,0,1,1.05-1.61c.34-.29.55-.42.57-.4s-.14.21-.43.54a3.14,3.14,0,0,0-.83,1.54,1.39,1.39,0,0,0,.24,1.07.93.93,0,0,0,1,.36,1.32,1.32,0,0,0,.76-1.07,4.42,4.42,0,0,0-.23-1.64l.51,0v.16a1.91,1.91,0,0,0,.63,1.4,2,2,0,0,0,1.36.48,1.43,1.43,0,0,0,1.12-.56,1,1,0,0,0,0-1,2.27,2.27,0,0,0-1.47-.92C249.4,311.44,249.16,311.39,249.16,311.35Z" style="fill: #263238"></path><path d="M248.29,310.3s.25-.57,1.06-1.08a4.15,4.15,0,0,1,1.55-.6,3.39,3.39,0,0,1,1-.05,1.05,1.05,0,0,1,.93.84,1.32,1.32,0,0,1-.51,1.1,3.16,3.16,0,0,1-.84.56,3.52,3.52,0,0,1-1.65.33c-1-.06-1.47-.45-1.43-.49a13.75,13.75,0,0,0,1.43.12,3.46,3.46,0,0,0,1.43-.39c.46-.24,1.09-.72,1.05-1.16a.56.56,0,0,0-.5-.4,3,3,0,0,0-.85,0,4.34,4.34,0,0,0-1.45.45C248.74,309.93,248.36,310.35,248.29,310.3Z" style="fill: #263238"></path><path d="M247,310s-.45-.41-.5-1.35a2.77,2.77,0,0,1,.42-1.56,2.25,2.25,0,0,1,1.65-1.16,1.13,1.13,0,0,1,1,.59,1.76,1.76,0,0,1,.21,1,4.28,4.28,0,0,1-.39,1.53c-.4.82-.86,1.16-.9,1.11s.28-.47.56-1.25a4.74,4.74,0,0,0,.25-1.41c0-.51-.23-1.08-.73-1a1.89,1.89,0,0,0-1.27.89,2.67,2.67,0,0,0-.45,1.31A11.1,11.1,0,0,0,247,310Z" style="fill: #263238"></path><path d="M247.54,310s.44-.27,1,.18a1,1,0,0,1,.26,1.23,1.19,1.19,0,0,1-1.44.5,1.38,1.38,0,0,1-1-1.1,1,1,0,0,1,.2-.7.92.92,0,0,1,.52-.32,1.29,1.29,0,0,1,.8.07c.16.06.24.12.23.16s-.43-.05-.92.12a.52.52,0,0,0-.35.61,1,1,0,0,0,.71.67.74.74,0,0,0,.87-.24.67.67,0,0,0-.1-.74C248,310.1,247.53,310.12,247.54,310Z" style="fill: #263238"></path><path d="M212.76,318.24a2.75,2.75,0,0,1-1.63,1.1,4.48,4.48,0,0,1-2.17.15,3.58,3.58,0,0,1-1.24-.47,1.57,1.57,0,0,1-.8-1.28,1.67,1.67,0,0,1,.72-1.32,2.56,2.56,0,0,1,1.27-.48,3.82,3.82,0,0,1,2.14.44,4,4,0,0,1,1.55,1.19c0,.07-.65-.4-1.71-.86a3.68,3.68,0,0,0-1.92-.29,2.11,2.11,0,0,0-1,.4,1.18,1.18,0,0,0-.51.91,1.12,1.12,0,0,0,.56.87,3.45,3.45,0,0,0,1.06.42,4.46,4.46,0,0,0,2,0A9.51,9.51,0,0,0,212.76,318.24Z" style="fill: #263238"></path><path d="M215.92,318.71a2.94,2.94,0,0,1,1,0A5.22,5.22,0,0,1,218,319a2.61,2.61,0,0,1,1.23,1,1.8,1.8,0,0,1,.1,1.94,2.46,2.46,0,0,1-2,1.08,3.2,3.2,0,0,1-3.43-3.17,2.71,2.71,0,0,1,0-.29.25.25,0,0,1,.27-.24.26.26,0,0,1,.24.19h0a6.32,6.32,0,0,1,.31,2.52,2.37,2.37,0,0,1-1.45,1.94,1.8,1.8,0,0,1-2.06-.74,2.33,2.33,0,0,1-.35-1.86,4.21,4.21,0,0,1,1.42-2.23,3.16,3.16,0,0,1,.76-.58s-.21.27-.62.72a4.31,4.31,0,0,0-1.2,2.15,2,2,0,0,0,.33,1.55,1.4,1.4,0,0,0,1.56.55A2,2,0,0,0,214.3,322a6,6,0,0,0-.31-2.31l.51-.05a1.93,1.93,0,0,0,0,.24,2.76,2.76,0,0,0,.92,2,2.81,2.81,0,0,0,2,.69,2,2,0,0,0,1.62-.82,1.43,1.43,0,0,0,0-1.53,3.13,3.13,0,0,0-2.09-1.28A4.51,4.51,0,0,1,215.92,318.71Z" style="fill: #263238"></path><path d="M214.71,317.25a3.54,3.54,0,0,1,1.5-1.44,6.09,6.09,0,0,1,2.14-.81,4.86,4.86,0,0,1,1.39-.05,1.36,1.36,0,0,1,1.2,1.08,1.74,1.74,0,0,1-.68,1.44,4.41,4.41,0,0,1-1.14.77,4.92,4.92,0,0,1-2.25.47,3.14,3.14,0,0,1-2-.61,11.6,11.6,0,0,0,2,.24,5,5,0,0,0,2-.53,4.21,4.21,0,0,0,1-.71,1.33,1.33,0,0,0,.5-1,.86.86,0,0,0-.77-.65,4.62,4.62,0,0,0-1.23,0,6.38,6.38,0,0,0-2,.65C215.29,316.7,214.78,317.31,214.71,317.25Z" style="fill: #263238"></path><path d="M212.93,316.89a2.64,2.64,0,0,1-.63-1.87,4,4,0,0,1,1.46-3.11,2.37,2.37,0,0,1,1.36-.57,1.47,1.47,0,0,1,1.33.76,2.43,2.43,0,0,1,.27,1.34,5.69,5.69,0,0,1-.51,2.11,3.36,3.36,0,0,1-1.19,1.57c-.06-.06.44-.62.85-1.71a6.08,6.08,0,0,0,.37-2,1.92,1.92,0,0,0-.23-1.06,1,1,0,0,0-.87-.5,2.78,2.78,0,0,0-1.85,1.3,3.8,3.8,0,0,0-.62,1.86A8.23,8.23,0,0,0,212.93,316.89Z" style="fill: #263238"></path><path d="M213.67,316.89s.12-.09.38-.09a1.62,1.62,0,0,1,1,.39,1.4,1.4,0,0,1,.33,1.62,1.57,1.57,0,0,1-1.89.64,1.83,1.83,0,0,1-1.38-1.45,1.21,1.21,0,0,1,.25-.91,1.27,1.27,0,0,1,.68-.43,1.94,1.94,0,0,1,1.07.07c.23.08.35.15.34.18s-.15,0-.38,0a2.2,2.2,0,0,0-.92.08.82.82,0,0,0-.56.93,1.41,1.41,0,0,0,1.05,1,1.12,1.12,0,0,0,1.32-.38,1,1,0,0,0-.17-1.12C214.26,316.91,213.65,317,213.67,316.89Z" style="fill: #263238"></path></g><g id="freepik--Pencils--inject-63"><path d="M451,370.38s2-2.42,14.33-1.91,11.64,1.91,11.64,1.91l-10.57,4-7.35.26Z" style="fill: #263238"></path><polygon points="451.73 350.8 454.9 350.62 458.21 387.56 455.04 387.74 451.73 350.8" style="fill: #e0e0e0"></polygon><path d="M453.42,376.51l4.52-.26L459,388.18a2,2,0,0,1-2.09,1.95h0a2.17,2.17,0,0,1-2.43-1.69Z" style="fill: #455a64"></path><polygon points="452.05 371.06 452.93 371.01 454.31 386.49 453.43 386.54 452.05 371.06" style="fill: #455a64"></polygon><path d="M457.94,376.25a36.39,36.39,0,0,1-4.56.53l.21-.19c.08.83.17,1.73.26,2.68.16,1.77.27,3.36.33,4.52a6.84,6.84,0,0,1,0,1.88,7.87,7.87,0,0,1-.34-1.86c-.14-1.15-.31-2.74-.47-4.51-.08-.95-.15-1.85-.22-2.69v-.18h.21A37.94,37.94,0,0,1,457.94,376.25Z" style="fill: #263238"></path><rect x="458.28" y="351.66" width="3.18" height="28.92" style="fill: #e0e0e0"></rect><path d="M462.07,363h-4.53V351a2.08,2.08,0,0,1,2.26-1.82h0a2.09,2.09,0,0,1,2.27,1.82Z" style="fill: #455a64"></path><rect x="462.07" y="352.95" width="0.88" height="15.52" style="fill: #455a64"></rect><path d="M457.54,363a36.58,36.58,0,0,1,4.58-.26l-.21.18,0-2.7c0-1.76,0-3.36.08-4.52a7,7,0,0,1,.17-1.88,7,7,0,0,1,.17,1.88c.05,1.16.07,2.76.07,4.52,0,1,0,1.86,0,2.7v.18h-.22A35.59,35.59,0,0,1,457.54,363Z" style="fill: #263238"></path><rect x="464.68" y="358.44" width="3.18" height="28.92" style="fill: #e0e0e0"></rect><path d="M468.47,369.74h-4.53v-12a2.08,2.08,0,0,1,2.27-1.83h0a2.08,2.08,0,0,1,2.26,1.83Z" style="fill: #455a64"></path><rect x="468.47" y="359.73" width="0.88" height="15.52" style="fill: #455a64"></rect><path d="M463.94,369.74a36.85,36.85,0,0,1,4.59-.26l-.22.18c0-.84,0-1.74,0-2.7,0-1.77,0-3.37.07-4.53a7.53,7.53,0,0,1,.17-1.87,7.2,7.2,0,0,1,.18,1.87c0,1.16.07,2.76.07,4.53,0,1,0,1.86,0,2.7v.17h-.21A38.09,38.09,0,0,1,463.94,369.74Z" style="fill: #263238"></path><rect x="470.72" y="350.6" width="3.18" height="28.92" style="fill: #e0e0e0"></rect><path d="M474.51,361.89H470v-12a2.08,2.08,0,0,1,2.26-1.82h0a2.08,2.08,0,0,1,2.27,1.82Z" style="fill: #455a64"></path><rect x="474.51" y="351.89" width="0.88" height="15.52" style="fill: #455a64"></rect><path d="M470,361.89a39.4,39.4,0,0,1,4.59-.26l-.22.18c0-.83,0-1.74,0-2.69,0-1.77,0-3.37.07-4.53a6.9,6.9,0,0,1,.17-1.87,6.9,6.9,0,0,1,.17,1.87c.05,1.16.08,2.76.08,4.53,0,.95,0,1.86,0,2.69V362h-.21A35.7,35.7,0,0,1,470,361.89Z" style="fill: #263238"></path><path d="M474,394.37c-6.85,2.53-14.61,2.4-20.37,0l-2.68-24c8.88,2.32,17.57,2.64,26,0Z" style="fill: #fca311"></path><path d="M256,358.43s2-2.42,14.33-1.91S282,358.43,282,358.43l-10.57,4-7.35.26Z" style="fill: #263238"></path><path d="M255.38,352.14l8.24,18.8a1.81,1.81,0,0,0,2.36.92l2-.9a1.79,1.79,0,0,0,.91-2.36l-8.29-18.91a1.79,1.79,0,0,0-.66-.78l-2.52-1.66a.78.78,0,0,0-1.17.42l-1,3.23A1.77,1.77,0,0,0,255.38,352.14Z" style="fill: #455a64"></path><path d="M264,370.94a20.52,20.52,0,0,0,2.63-.43,19.27,19.27,0,0,0,2.36-1.23c.12.07-.65,1.22-2.2,1.72A3.25,3.25,0,0,1,264,370.94Z" style="fill: #263238"></path><path d="M255.83,351.78c0-.16,1.17-.17,2.48-.66s2.22-1.21,2.32-1.1a3.52,3.52,0,0,1-2.14,1.59A3.59,3.59,0,0,1,255.83,351.78Z" style="fill: #263238"></path><path d="M260.13,356.47a27.42,27.42,0,0,1,4.76,11c-.15,0-.93-2.54-2.25-5.58S260,356.55,260.13,356.47Z" style="fill: #263238"></path><path d="M275.81,350.46l-5.28,19.83a1.79,1.79,0,0,0,1.26,2.19l2.16.57a1.79,1.79,0,0,0,2.19-1.27l5.32-20a1.74,1.74,0,0,0,0-1l-.94-2.88a.78.78,0,0,0-1.18-.4l-2.78,1.91A1.74,1.74,0,0,0,275.81,350.46Z" style="fill: #fca311"></path><path d="M270.79,370.51a20.41,20.41,0,0,0,2.33,1.3,22,22,0,0,0,2.61.52,3.33,3.33,0,0,1-2.79,0C271.41,371.74,270.67,370.57,270.79,370.51Z" style="fill: #263238"></path><path d="M276.39,350.45c.1-.12,1,.6,2.34,1s2.49.43,2.5.59a3.59,3.59,0,0,1-2.66-.1C277.12,351.5,276.28,350.54,276.39,350.45Z" style="fill: #263238"></path><path d="M276.82,356.8a27.43,27.43,0,0,1-3.17,11.6c-.14-.06.86-2.57,1.73-5.76S276.67,356.78,276.82,356.8Z" style="fill: #263238"></path><path d="M271.48,368.38l1.63-20.46a1.79,1.79,0,0,0-1.64-1.93l-2.22-.17a1.79,1.79,0,0,0-1.93,1.64l-1.65,20.59a1.89,1.89,0,0,0,.21,1l1.44,2.66a.78.78,0,0,0,1.24.18l2.39-2.37A1.84,1.84,0,0,0,271.48,368.38Z" style="fill: #e0e0e0"></path><path d="M272.8,348.2a19.45,19.45,0,0,0-2.61-.54,20.21,20.21,0,0,0-2.64.3,4.14,4.14,0,0,1,5.25.24Z" style="fill: #263238"></path><path d="M270.91,368.49c-.08.13-1.11-.41-2.5-.6s-2.52,0-2.56-.13a3.56,3.56,0,0,1,2.64-.39A3.51,3.51,0,0,1,270.91,368.49Z" style="fill: #263238"></path><path d="M269.34,362.32a27.61,27.61,0,0,1,1-12c.15,0-.39,2.68-.67,6S269.5,362.31,269.34,362.32Z" style="fill: #263238"></path><path d="M279,382.42c-6.85,2.53-14.61,2.4-20.37,0l-2.68-24c8.88,2.32,17.57,2.64,26,0Z" style="fill: #263238"></path><path d="M225,355.22,207.83,344a1.8,1.8,0,0,0-2.48.52l-1.21,1.88a1.78,1.78,0,0,0,.52,2.47L222,360.16a1.79,1.79,0,0,0,1,.29h3a.78.78,0,0,0,.75-1l-.95-3.24A1.75,1.75,0,0,0,225,355.22Z" style="fill: #455a64"></path><path d="M207.54,344.2c.06.15-1.07.65-2,1.81a21,21,0,0,0-1.31,2.32,3.28,3.28,0,0,1,.9-2.64A3.33,3.33,0,0,1,207.54,344.2Z" style="fill: #263238"></path><path d="M224.86,355.77c.07.13-.89.78-1.72,1.9s-1.19,2.23-1.34,2.19a3.58,3.58,0,0,1,.92-2.5C223.63,356.13,224.81,355.64,224.86,355.77Z" style="fill: #263238"></path><path d="M218.69,354.2a27.27,27.27,0,0,1-10-6.62c.1-.11,2.17,1.61,4.94,3.43S218.75,354.06,218.69,354.2Z" style="fill: #263238"></path><path d="M384.89,384,405,388.31a1.8,1.8,0,0,0,2.13-1.38l.47-2.18a1.79,1.79,0,0,0-1.38-2.12L386,378.29a1.87,1.87,0,0,0-1,.08l-2.82,1.08a.77.77,0,0,0-.34,1.19l2,2.69A1.8,1.8,0,0,0,384.89,384Z" style="fill: #455a64"></path><path d="M405.16,388a22,22,0,0,0,1.19-2.39,22.86,22.86,0,0,0,.39-2.63,3.32,3.32,0,0,1,.1,2.79C406.36,387.36,405.23,388.15,405.16,388Z" style="fill: #263238"></path><path d="M384.85,383.42c-.12-.09.56-1,.93-2.39s.31-2.51.46-2.53a3.57,3.57,0,0,1,0,2.67A3.52,3.52,0,0,1,384.85,383.42Z" style="fill: #263238"></path><path d="M391.17,382.68a19.83,19.83,0,0,1,6,.65,19.19,19.19,0,0,1,5.72,1.95c-.05.14-2.6-.74-5.84-1.45S391.16,382.83,391.17,382.68Z" style="fill: #263238"></path><path d="M394.46,369.27,414.54,365a1.79,1.79,0,0,0,1.38-2.12l-.46-2.18a1.78,1.78,0,0,0-2.12-1.38l-20.21,4.25a1.77,1.77,0,0,0-.89.48l-2.15,2.14a.78.78,0,0,0,.18,1.23l3,1.62A1.75,1.75,0,0,0,394.46,369.27Z" style="fill: #fca311"></path><path d="M414.62,364.71a23.18,23.18,0,0,0,.11-2.67,18.49,18.49,0,0,0-.72-2.56,3.27,3.27,0,0,1,1.24,2.5A3.4,3.4,0,0,1,414.62,364.71Z" style="fill: #263238"></path><path d="M394.19,368.76c-.15,0,.08-1.19-.13-2.57s-.73-2.41-.6-2.49a4.71,4.71,0,0,1,.73,5.06Z" style="fill: #263238"></path><path d="M399.66,365.51a27.4,27.4,0,0,1,11.78-2.41c0,.16-2.67.39-5.92,1.06S399.71,365.65,399.66,365.51Z" style="fill: #263238"></path><path d="M532.08,423.46l20.08-4.23a1.79,1.79,0,0,0,1.39-2.11l-.46-2.19a1.8,1.8,0,0,0-2.12-1.38l-20.22,4.25a1.85,1.85,0,0,0-.89.48l-2.14,2.14a.78.78,0,0,0,.17,1.23l3,1.63A1.81,1.81,0,0,0,532.08,423.46Z" style="fill: #263238"></path><path d="M552.24,418.9a18.67,18.67,0,0,0,.11-2.66,21.14,21.14,0,0,0-.71-2.57,3.35,3.35,0,0,1,1.23,2.51A3.3,3.3,0,0,1,552.24,418.9Z" style="fill: #455a64"></path><path d="M531.81,423c-.14,0,.08-1.18-.13-2.57s-.73-2.41-.6-2.49a3.51,3.51,0,0,1,1.12,2.42A3.56,3.56,0,0,1,531.81,423Z" style="fill: #455a64"></path><path d="M537.29,419.7a19.73,19.73,0,0,1,5.75-1.86,20.44,20.44,0,0,1,6-.55c0,.16-2.68.39-5.92,1.06S537.34,419.84,537.29,419.7Z" style="fill: #455a64"></path><path d="M405,372.09l20.5-.86a1.77,1.77,0,0,0,1.71-1.86l-.09-2.23a1.77,1.77,0,0,0-1.86-1.71l-20.64.86a1.76,1.76,0,0,0-1,.33l-2.46,1.75a.77.77,0,0,0,0,1.24l2.64,2.09A1.83,1.83,0,0,0,405,372.09Z" style="fill: #e0e0e0"></path><path d="M425.6,370.91a20.4,20.4,0,0,0,.55-2.61,20.85,20.85,0,0,0-.28-2.65,3.3,3.3,0,0,1,.8,2.68A3.27,3.27,0,0,1,425.6,370.91Z" style="fill: #263238"></path><path d="M404.79,371.54c-.14-.07.27-1.16.29-2.55s-.32-2.51-.18-2.56a3.53,3.53,0,0,1,.7,2.57A3.59,3.59,0,0,1,404.79,371.54Z" style="fill: #263238"></path><path d="M410.72,369.23a20.25,20.25,0,0,1,6-.88,19.72,19.72,0,0,1,6,.46c0,.15-2.71-.06-6,.06S410.75,369.38,410.72,369.23Z" style="fill: #263238"></path></g><g id="freepik--character-5--inject-63"><path d="M632.93,250.62a29.5,29.5,0,0,1,15.78-14.85l-.49-.49a12.33,12.33,0,0,1,13.48,9.89c.4,2.51,0,5.06-.09,7.6s.27,5.25,1.91,7.19c.87,1,2,1.77,3,2.76a3.81,3.81,0,0,1,1.18,3.67c-.57,1.64-2.63,2.19-4.36,2.08s-3.5-.61-5.16-.11a5.42,5.42,0,1,1-8.39,6.85c.46,3-1.84,6-4.76,6.86a9.42,9.42,0,0,1-8.49-2.16,17.13,17.13,0,0,1-4.77-7.65A29.46,29.46,0,0,1,632.93,250.62Z" style="fill: #263238"></path><path d="M597.71,228.29a5.51,5.51,0,0,1,5-3.14,16.16,16.16,0,0,1,6.08,1.34c-.2-2.78-.38-5.65.52-8.28s3.19-5,6-5.11c2.4-.09,4.55,1.46,6.21,3.19s3.07,3.75,5.06,5.09c5.19,3.46,12.35,1.22,18.21,3.35,6,2.19,10.17,10.11,8.31,16.24-10.75,2.3-21.61,4.64-31.59,9.25-5.4,2.5-11.28,5.73-16.94,3.91a10.32,10.32,0,0,1-3.33-17.84C599,234.12,596.63,231.18,597.71,228.29Z" style="fill: #263238"></path><path d="M605.65,244c1.88-8.09,12.06-14.78,20.07-12.56l25.6,9.46-5.15,3.1-10.36,52.84h0s-1.29,19.87-15.95,16.38c-13.18-3.13-10.09-17.08-10.08-17.09l2.12-10.21s-10.69-2.23-10.57-16.23C601.39,262.71,603.55,253,605.65,244Z" style="fill: #ffbf9d"></path><path d="M606.84,257.26a1.78,1.78,0,0,0,1.39,2.05A1.7,1.7,0,0,0,610.3,258a1.77,1.77,0,0,0-1.39-2A1.69,1.69,0,0,0,606.84,257.26Z" style="fill: #263238"></path><path d="M606.84,251.64c.18.27,1.67-.49,3.55-.17s3.1,1.49,3.34,1.29,0-.53-.56-1.07a4.9,4.9,0,0,0-2.63-1.32,4.72,4.72,0,0,0-2.87.42C607,251.14,606.75,251.52,606.84,251.64Z" style="fill: #263238"></path><path d="M622.12,260.45a1.78,1.78,0,0,0,1.4,2.05,1.7,1.7,0,0,0,2.06-1.27,1.77,1.77,0,0,0-1.39-2.05A1.7,1.7,0,0,0,622.12,260.45Z" style="fill: #263238"></path><path d="M624.11,254.83c.18.27,1.67-.49,3.55-.17s3.1,1.49,3.34,1.3,0-.54-.56-1.08a5,5,0,0,0-2.63-1.32,4.67,4.67,0,0,0-2.88.43C624.28,254.33,624,254.71,624.11,254.83Z" style="fill: #263238"></path><path d="M616.16,267.55a15.2,15.2,0,0,0-3-1c-.47-.12-.92-.28-.95-.57s.2-.72.51-1.16l1.91-2.85a86.51,86.51,0,0,0,4.48-7.57c-.2-.1-2.53,3.12-5.2,7.2l-1.86,2.88a2.06,2.06,0,0,0-.5,1.56,1.19,1.19,0,0,0,.69.73,3.51,3.51,0,0,0,.8.24A14.39,14.39,0,0,0,616.16,267.55Z" style="fill: #263238"></path><path d="M611.8,286a35.24,35.24,0,0,0,19.08-1.82s-6.26,8.74-19.69,5.18Z" style="fill: #ff9a6c"></path><path d="M621.77,268.67c-.3-.07-.65,2-2.64,3.13s-4.12.57-4.19.85c-.05.12.42.48,1.33.66a5.15,5.15,0,0,0,3.48-.6,4.5,4.5,0,0,0,2.09-2.64C622.06,269.22,621.91,268.68,621.77,268.67Z" style="fill: #263238"></path><path d="M625.78,248.66c.12.62,1.81.46,3.75.92s3.47,1.29,3.77.77c.14-.25-.09-.84-.69-1.47a5.4,5.4,0,0,0-2.72-1.53,4.88,4.88,0,0,0-3,.24C626.13,247.92,625.73,248.37,625.78,248.66Z" style="fill: #263238"></path><path d="M607.86,245.16c.22.59,1.69.4,3.3.76s2.9,1.07,3.34.62c.2-.22.11-.77-.37-1.39a4.36,4.36,0,0,0-2.48-1.47,4.42,4.42,0,0,0-2.88.36C608.08,244.42,607.77,244.88,607.86,245.16Z" style="fill: #263238"></path><path d="M608.12,236.45a20.12,20.12,0,0,1,13.77-7.33,33.42,33.42,0,0,1,15.68,2.49,99.72,99.72,0,0,1,14.2,7.4,4,4,0,0,1,2.58,5.28L649.64,266,647,270.2c-2.37-.36-4.09-2.41-5.35-4.45a33.13,33.13,0,0,1-4.1-24.17,11.2,11.2,0,0,0-1.81,3,3.64,3.64,0,0,1-2.56,2.16c-1.93.2-3.16-2.14-3.14-4.09s.67-4,0-5.78a22.24,22.24,0,0,1-8.32,5.46c-1.48.55-3.37.85-4.44-.31a3,3,0,0,1-.33-3.16,9.06,9.06,0,0,1,2-2.63,17.4,17.4,0,0,1-9.24,3.7,2.44,2.44,0,0,1-2.08-.52C606.91,238.57,607.46,237.31,608.12,236.45Z" style="fill: #263238"></path><path d="M641.54,262.35c.23-.05,8.79-1,7.08,7.26s-9.67,4.84-9.64,4.6S641.54,262.35,641.54,262.35Z" style="fill: #ffbf9d"></path><path d="M642.16,271.6s.12.13.35.29a1.45,1.45,0,0,0,1.07.25c.94-.14,2-1.38,2.31-2.86a4.89,4.89,0,0,0,0-2.15,1.71,1.71,0,0,0-.86-1.33.75.75,0,0,0-.93.22c-.16.21-.14.39-.19.39s-.15-.17,0-.5a1,1,0,0,1,.43-.45,1.17,1.17,0,0,1,.85,0,2.06,2.06,0,0,1,1.23,1.6,4.9,4.9,0,0,1,0,2.41c-.39,1.65-1.57,3-2.84,3.13a1.57,1.57,0,0,1-1.27-.49C642.13,271.8,642.13,271.61,642.16,271.6Z" style="fill: #ff9a6c"></path><path d="M639.39,240.86a1.87,1.87,0,0,0,.08.52c.08.33.2.82.39,1.45a27.24,27.24,0,0,0,2.13,5.09,27.6,27.6,0,0,0,2,3.23c.41.55.83,1.11,1.33,1.67a4,4,0,0,0,1.92,1.31,2.5,2.5,0,0,0,2.36-.67,4.56,4.56,0,0,0,1.27-2.21c.4-1.73-.08-3.48,0-5.2a6.47,6.47,0,0,1,.07-.65l-.41.07,2.75,4.26,1.3,2a4.66,4.66,0,0,0,1.65,1.71,1.67,1.67,0,0,0,1.22.11,1.9,1.9,0,0,0,1-.69,5,5,0,0,0,.84-1.95,14.62,14.62,0,0,0,.46-3.7,14.46,14.46,0,0,0-1-5.27,9.85,9.85,0,0,0-.6-1.32,3.66,3.66,0,0,0-.26-.44s.29.64.7,1.82a15.25,15.25,0,0,1,.83,5.21,15,15,0,0,1-.5,3.61,4.77,4.77,0,0,1-.79,1.8,1.33,1.33,0,0,1-1.7.45,4.35,4.35,0,0,1-1.48-1.58l-1.29-2q-1.32-2.07-2.73-4.25l-.32-.5-.09.57c0,.22-.06.46-.08.7-.11,1.82.36,3.56,0,5.12a4.19,4.19,0,0,1-1.14,2,2.12,2.12,0,0,1-2,.59,3.68,3.68,0,0,1-1.73-1.19c-.48-.53-.91-1.09-1.33-1.62a31.2,31.2,0,0,1-2.06-3.16,30.47,30.47,0,0,1-2.25-5c-.21-.61-.36-1.09-.46-1.42A3.48,3.48,0,0,0,639.39,240.86Z" style="fill: #455a64"></path><path d="M651.11,363.08s2.14,17,1.06,24.5a38.2,38.2,0,0,1-5.08,13.67l-33.51,1-.38,7.15s-51.47,1.78-55.82,0-7.07-9.51-6-15.66,10.15-14.26,20.29-16.64,40.79-9.4,40.79-9.4Z" style="fill: #263238"></path><path d="M552.53,403.66s-4.57-1.94-6.24-6.37-2.75-12,.76-19c.94-1.88,5.69-8.08,14.18-10.15s44.53-5.52,44.53-5.52l11.53,5.49Z" style="fill: #263238"></path><path d="M569.66,396.22s.5-.42,1.45-1.1a22.16,22.16,0,0,1,4.24-2.42,39.93,39.93,0,0,1,6.81-2.25,65.35,65.35,0,0,1,8.63-1.41,38.46,38.46,0,0,1,4.51-.18,36.5,36.5,0,0,1,4.18.37,33.85,33.85,0,0,1,6.9,1.87,39,39,0,0,1,4.43,2c.51.26.9.49,1.17.63s.41.22.42.2a3.51,3.51,0,0,0-.39-.27c-.26-.16-.63-.42-1.14-.7a33.17,33.17,0,0,0-11.34-4.13,34.93,34.93,0,0,0-4.22-.4,37,37,0,0,0-4.55.17,62.39,62.39,0,0,0-8.67,1.45,39.37,39.37,0,0,0-6.84,2.34A21.15,21.15,0,0,0,571,395a10.49,10.49,0,0,0-1,.89A2.74,2.74,0,0,0,569.66,396.22Z" style="fill: #455a64"></path><path d="M568.14,393.33c0,.1.61.52,1.45.93a3.61,3.61,0,0,0,1.59.57c0-.1-.6-.52-1.44-.93S568.19,393.23,568.14,393.33Z" style="fill: #455a64"></path><path d="M598.77,371.89h-.17l-.5,0c-.44,0-1.09.08-1.92.16-1.66.15-4.07.43-7,1s-6.44,1.18-10.35,1.79a64.11,64.11,0,0,0-12.54,3.06,26.62,26.62,0,0,0-10.88,7.37,18,18,0,0,0-4.45,10.26,18.73,18.73,0,0,0,.35,4.41,20.16,20.16,0,0,0,.89,3.19,12.44,12.44,0,0,0,.89,1.87c.12.21.23.35.29.45a1.16,1.16,0,0,0,.11.14,4.31,4.31,0,0,0-.34-.63,13.79,13.79,0,0,1-.81-1.89,20.28,20.28,0,0,1-.83-3.18,19,19,0,0,1-.29-4.34,17.8,17.8,0,0,1,4.43-10,26.58,26.58,0,0,1,10.76-7.24,65.88,65.88,0,0,1,12.48-3.07c3.9-.64,7.41-1.3,10.34-1.89s5.33-.89,7-1.1l1.91-.23.49-.06Z" style="fill: #455a64"></path><path d="M613.2,409.38,614,393.8l15.13,2.54,1.89-.55s6.39-5.78,7.77-6.68c1.74-1.13,6.32,0,7.79,3.23s3,4,4.33,4.65,15,0,13.36,12.15Z" style="fill: #e0e0e0"></path><path d="M615.7,409.6a10.92,10.92,0,0,0,.24-2.1c.09-1.3.18-3.09.23-5.08s.07-3.78.06-5.08a11.06,11.06,0,0,0-.09-2.11,11.81,11.81,0,0,0-.16,2.1c-.06,1.3-.12,3.09-.18,5.08s-.08,3.64-.12,5.08A14.28,14.28,0,0,0,615.7,409.6Z" style="fill: #fca311"></path><path d="M617.36,409.6a10.92,10.92,0,0,0,.24-2.1c.09-1.3.17-3.09.23-5.08s.07-3.78.06-5.08a12.2,12.2,0,0,0-.09-2.11,12.29,12.29,0,0,0-.17,2.1c-.06,1.3-.12,3.1-.17,5.08s-.09,3.64-.12,5.08A11.5,11.5,0,0,0,617.36,409.6Z" style="fill: #fca311"></path><path d="M654.87,409.58a15,15,0,0,1,2.5-11.32,4.87,4.87,0,0,0-1.16,1.35,11.73,11.73,0,0,0-1.66,4,12,12,0,0,0-.16,4.29A4.76,4.76,0,0,0,654.87,409.58Z" style="fill: #455a64"></path><path d="M634.26,394.28a5.41,5.41,0,0,0,1.54,1.46,9.57,9.57,0,0,0,9.84.71,5,5,0,0,0,1.73-1.24c0-.06-.68.44-1.86,1a10.35,10.35,0,0,1-4.85.85,10.53,10.53,0,0,1-4.69-1.53C634.88,394.8,634.32,394.22,634.26,394.28Z" style="fill: #455a64"></path><path d="M608.5,294.22s-4.17-1-7.53,3.44c-3.1,4.06-9.64,24.83-9.64,24.83L582,365.94l17.18.73,9.3-68Z" style="fill: #fca311"></path><path d="M600.05,304.34s0,0-.09.13a3.68,3.68,0,0,0-.19.42,13.33,13.33,0,0,0-.49,1.68c-.34,1.47-.71,3.64-1.07,6.32-.73,5.36-1.46,12.8-2.11,21s-1.09,15.7-1.35,21.1c-.13,2.7-.21,4.89-.26,6.4q0,1.08,0,1.74a2.86,2.86,0,0,0,0,.61,2.66,2.66,0,0,0,.07-.6l.12-1.74c.09-1.56.23-3.73.39-6.39.34-5.4.84-12.85,1.49-21.08s1.32-15.67,2-21c.32-2.68.64-4.85.93-6.33a17.16,17.16,0,0,1,.4-1.68A4.52,4.52,0,0,0,600.05,304.34Z" style="fill: #263238"></path><path d="M637.85,291.93s12,8.47,12.79,18.7c.41,5.37,3.19,39.12,2.93,50.53a3.17,3.17,0,0,0,.33,1.46c.67,1.34-.4,5.9-2.06,6.15-10.34,1.54-37.15,3.65-48.73.63l-5.7-2.9s1.81-47.55,2.35-53.18c.92-9.5,8.74-16.62,8.74-16.62h0a22.35,22.35,0,0,0,23.24-.5Z" style="fill: #fca311"></path><path d="M638.43,293.5s-.41-3.87-1.49-3.9-10,3-15.3,2.31-9.36-3.05-10.85-2.69c-3.91.93-4,7.84-4,7.84s7.06,4.94,14.71,3.12S638.43,293.5,638.43,293.5Z" style="fill: #fca311"></path><g style="opacity: .3"><path d="M653.5,347.77a36.85,36.85,0,0,1,.06,10.54,11.32,11.32,0,0,1-4.56,7.46c-3,2.12-7.13,2.7-11,3-11.36.74-22.53,1.35-33-.82,11.63-.77,24.21-.88,34.85-5.17,5.55-2.24,13.1-9.73,13.68-15"></path></g><path d="M573.23,353.35l14,15a1.79,1.79,0,0,0,2.53.1l1.64-1.53a1.78,1.78,0,0,0,.09-2.52L577.39,349.3a1.66,1.66,0,0,0-.87-.52l-2.93-.73a.77.77,0,0,0-1,.78l.13,3.37A1.81,1.81,0,0,0,573.23,353.35Z" style="fill: #455a64"></path><path d="M587.53,368.27a19.84,19.84,0,0,0,2.34-1.27c1.17-.88,1.69-2,1.83-1.94a4.15,4.15,0,0,1-4.17,3.21Z" style="fill: #263238"></path><path d="M573.53,352.86c0-.15,1.05-.54,2.13-1.44s1.69-1.87,1.83-1.8a3.53,3.53,0,0,1-1.5,2.21A3.59,3.59,0,0,1,573.53,352.86Z" style="fill: #263238"></path><path d="M579.14,355.87a27.65,27.65,0,0,1,8.13,8.86c-.13.09-1.72-2.09-4-4.53S579,356,579.14,355.87Z" style="fill: #263238"></path><path d="M599,354.66s-20.07,5.21-20.66,8.42.89,9.42,2.63,10.27,15.17-1.28,15.17-1.28l1.6-4.07Z" style="fill: #ffbf9d"></path><path d="M633.84,305.81c2.76-2.07,9.37-1.93,11.84.31,2.83,2.56,5,6.2,5.58,11.94,1,9.12,4,37.07.88,41.74s-6.85,5.22-11.92,6.47-42.3,2.27-42.3,2.27l1.39-14.76L632,347.29s-3-28.54-2.94-31.81A11.8,11.8,0,0,1,633.84,305.81Z" style="fill: #fca311"></path><path d="M642.75,353.21a5.6,5.6,0,0,0-1-1.38,14.11,14.11,0,0,0-3.44-2.65,16.19,16.19,0,0,0-4.24-1.6,7,7,0,0,0-1.9-.25c0,.05.71.16,1.83.47a19.28,19.28,0,0,1,4.11,1.65A16.65,16.65,0,0,1,641.5,352C642.28,352.73,642.7,353.24,642.75,353.21Z" style="fill: #263238"></path><path d="M644.31,348.42a7.48,7.48,0,0,0-1.64-.61,22.3,22.3,0,0,0-4.21-.76,24,24,0,0,0-4.33.06,7.72,7.72,0,0,0-1.75.33,14.06,14.06,0,0,0,1.77-.1,28.34,28.34,0,0,1,8.44.69A14.45,14.45,0,0,0,644.31,348.42Z" style="fill: #263238"></path><path d="M639.25,303.65s-.44,0-1.27.16a13.37,13.37,0,0,0-3.54,1.07,9.25,9.25,0,0,0-4.15,3.74A11.21,11.21,0,0,0,629,315.5v0c0,2,.23,4.23.41,6.6s.45,4.88.69,7.56c.51,5.34,1.1,11.27,1.77,17.66l.13-.15-32.69,6.47-.13,0v.12c-.43,4.57-.89,9.35-1.35,14.23,0,.18,0,.36,0,.53v.17h.2c7.29-.21,14.4-.46,21.27-.76,3.44-.15,6.81-.31,10.11-.51s6.53-.39,9.68-.79l1.18-.21c.38-.08.75-.18,1.13-.27.76-.18,1.51-.36,2.25-.56a19.31,19.31,0,0,0,4.24-1.55,11.87,11.87,0,0,0,3.31-2.63c.21-.26.43-.52.63-.78l.57-.81a6.19,6.19,0,0,0,.69-1.78,22.37,22.37,0,0,0,.5-3.57c.1-1.17.13-2.31.16-3.44,0-2.25,0-4.41-.09-6.46-.34-8.22-1-14.85-1.48-19.42-.25-2.28-.45-4.05-.58-5.26-.07-.6-.13-1-.16-1.37s-.07-.47-.07-.47,0,.16,0,.47.07.78.13,1.37c.12,1.22.29,3,.51,5.27.41,4.58,1.05,11.2,1.36,19.42.07,2.05.11,4.21.07,6.45,0,1.12-.07,2.27-.17,3.43a22.93,22.93,0,0,1-.51,3.53,6.19,6.19,0,0,1-.66,1.7c-.18.27-.37.53-.56.79s-.41.51-.62.77a11.5,11.5,0,0,1-3.22,2.55,19.32,19.32,0,0,1-4.17,1.52l-2.24.55-1.14.27-1.14.2c-3.11.39-6.35.58-9.65.78s-6.67.35-10.1.5c-6.87.29-14,.54-21.27.75l.19.17,0-.53,1.34-14.23-.14.14L632,347.42l.14,0v-.13c-.66-6.39-1.28-12.32-1.83-17.66q-.37-4-.72-7.55c-.19-2.36-.41-4.57-.44-6.58h0a11.16,11.16,0,0,1,1.26-6.79,9.2,9.2,0,0,1,4.06-3.72,14.3,14.3,0,0,1,3.5-1.11c.41-.08.73-.11.94-.15Z" style="fill: #263238"></path><path d="M607.19,294.13a7.5,7.5,0,0,0,1.06.73,24.79,24.79,0,0,0,3.13,1.57,24,24,0,0,0,11.36,1.82,25.58,25.58,0,0,0,6.21-1.44c1.84-.65,3.47-1.31,4.83-1.89l3.21-1.37a6.61,6.61,0,0,0,1.15-.56,7.71,7.71,0,0,0-1.22.4l-3.26,1.24c-1.37.54-3,1.17-4.85,1.79a26.41,26.41,0,0,1-6.12,1.39,25,25,0,0,1-11.19-1.67,33.31,33.31,0,0,1-3.16-1.43A7.72,7.72,0,0,0,607.19,294.13Z" style="fill: #263238"></path></g><g id="freepik--character-4--inject-63"><path d="M428.19,146.94l2.65,14.59a15.35,15.35,0,0,0,2.77,6.4l2.79,3.79s14.07,44.93,17.16,48.21c7.48,7.95,16.89,1.93,21.67-2.36,8.75-7.87,17.9-25.17,17.9-25.17l-18-20.76L462.08,194l-12.66-46.83Z" style="fill: #ffbf9d"></path><path d="M569.35,161q-3.14-6.94-6.87-13.61c-6.24-11.13-13.79-21.86-16.69-34.29-1.6-6.87-1.7-14-3.27-20.89S533.8,72.08,523,69.78l-4.09,83.37A64.74,64.74,0,0,0,531,174.54c3.82,4.5,8.36,8.53,13.75,10.94s11.71,18.63,17.48,17.33c21-4.75,6.88-22.93,6.88-22.93C575.38,172.48,571.12,164.9,569.35,161Z" style="fill: #263238"></path><path d="M515.25,151.14q-1-10.66-2.08-21.32l-32-39.5c-2.12,9.77-4.49,28.59-1.31,38.07,1.19,3.56,2.77,7.18,2.37,10.91-.37,3.47-2.44,6.7-2.16,10.17.21,2.6,1.7,4.89,3.14,7.05a5.76,5.76,0,0,0,2.74,2.61,5.86,5.86,0,0,0,2.91-.08l24-4.82a2.32,2.32,0,0,0,2.32-3.09Z" style="fill: #263238"></path><path d="M535.88,79.81c-6.55-8-15.35-12.61-25.69-12.78-5.83-.1-8.25,1.11-12.45,2.24a18.46,18.46,0,0,0-10.5,7c-3,4.23-5.48,9-6,14.1a86.17,86.17,0,0,0-.76,15.88,29,29,0,0,0,5,14.93l13.47,2.34c7.44.25,15,.49,22.23-1.2s14.29-5.6,18.17-12C544.67,101.49,542.43,87.81,535.88,79.81Z" style="fill: #263238"></path><path d="M523.89,79.72l-18-7.14-4.69.55c-10.56,0-17.84,11.68-17.91,20.23-.07,9.5.21,21.1,1.72,28.1,3,14.08,15.05,15.25,15.05,15.25s-1.81,19.73-1.9,24.46L527.26,147l1.38-62.41A5,5,0,0,0,523.89,79.72Z" style="fill: #ffbf9d"></path><path d="M506.16,118.16a5.51,5.51,0,0,0-.72-2.27c-.55-.8-2.13.21-3.25,1s-2.62,1.05-2.61,1.24l.08.49a3.3,3.3,0,0,0,2.83,2.89h0a4.26,4.26,0,0,0,.5,0,3.35,3.35,0,0,0,2.26-.9A3,3,0,0,0,506.16,118.16Z" style="fill: #ff9a6c"></path><path d="M488.31,105.38a1.83,1.83,0,0,0,1.85,1.74,1.74,1.74,0,0,0,1.79-1.75,1.83,1.83,0,0,0-1.85-1.74A1.74,1.74,0,0,0,488.31,105.38Z" style="fill: #263238"></path><path d="M486.55,98.11c.24.22,1.56-.88,3.52-1s3.45.8,3.65.55-.15-.53-.8-1A5,5,0,0,0,490,96a4.82,4.82,0,0,0-2.79,1.07C486.61,97.57,486.43,98,486.55,98.11Z" style="fill: #263238"></path><path d="M499.15,113.48a12.94,12.94,0,0,0-3.22-.4c-.5,0-1-.1-1.08-.44a2.54,2.54,0,0,1,.25-1.5c.4-1.23.82-2.53,1.27-3.89,1.76-5.54,3-10.08,2.78-10.15s-1.83,4.36-3.59,9.9c-.42,1.37-.83,2.67-1.21,3.91a2.88,2.88,0,0,0-.15,2,1.25,1.25,0,0,0,.86.69,3.38,3.38,0,0,0,.86.07A13,13,0,0,0,499.15,113.48Z" style="fill: #263238"></path><path d="M500.07,136.69a36.16,36.16,0,0,0,18.75-6.11s-4.53,10.12-18.82,9.57Z" style="fill: #ff9a6c"></path><path d="M487.22,91.24c.35.46,1.84.06,3.6.11s3.24.43,3.6,0c.16-.22-.06-.68-.69-1.13a5.34,5.34,0,0,0-2.9-.84,5.19,5.19,0,0,0-2.9.77C487.28,90.57,487.06,91,487.22,91.24Z" style="fill: #263238"></path><path d="M510.5,104.88a1.82,1.82,0,0,1-1.73,1.87,1.74,1.74,0,0,1-1.91-1.61,1.82,1.82,0,0,1,1.73-1.87A1.75,1.75,0,0,1,510.5,104.88Z" style="fill: #263238"></path><path d="M513.08,97.35c-.23.24-1.63-.76-3.59-.72s-3.38,1.05-3.6.81.12-.54.74-1a5.06,5.06,0,0,1,2.87-.94,4.83,4.83,0,0,1,2.86.87C513,96.81,513.19,97.24,513.08,97.35Z" style="fill: #263238"></path><path d="M511.9,91.07c-.38.45-1.9,0-3.73,0s-3.35.36-3.72-.1c-.16-.22.08-.67.75-1.11a5.63,5.63,0,0,1,3-.78,5.55,5.55,0,0,1,3,.84C511.84,90.39,512.06,90.85,511.9,91.07Z" style="fill: #263238"></path><path d="M526.2,108.41c-.06-1.06,1-3.62,2.06-3.84,2.77-.59,7.81-.64,8.24,6.44.6,9.68-9.24,8.28-9.28,8S526.39,112.06,526.2,108.41Z" style="fill: #ffbf9d"></path><path d="M529.68,115.32s.17.1.47.22a1.68,1.68,0,0,0,1.26-.05c1-.44,1.76-2.12,1.7-3.87a5.62,5.62,0,0,0-.62-2.38,2,2,0,0,0-1.35-1.22.86.86,0,0,0-1,.52c-.11.28,0,.47-.09.49s-.21-.15-.16-.55a1.1,1.1,0,0,1,.34-.63,1.33,1.33,0,0,1,.92-.31,2.39,2.39,0,0,1,1.85,1.4,5.59,5.59,0,0,1,.75,2.66c.06,2-.82,3.84-2.2,4.33a1.82,1.82,0,0,1-1.56-.16C529.71,115.55,529.64,115.34,529.68,115.32Z" style="fill: #ff9a6c"></path><path d="M528.66,104.6l-2.46,2.55C515.58,97,494.82,71.53,496,73.05a30.84,30.84,0,0,1,15.17-1.65C519.05,72.74,534,76.7,533.8,86S528.66,104.6,528.66,104.6Z" style="fill: #263238"></path><path d="M542.72,102.46a2.17,2.17,0,0,0-.14-.56,11.59,11.59,0,0,0-.66-1.53,14.25,14.25,0,0,0-4-4.55,26.72,26.72,0,0,0-8.14-3.92c-3.24-1.05-6.89-1.87-10.48-3.41a47.79,47.79,0,0,1-9.56-5.35,49.45,49.45,0,0,1-6.75-5.91A50.52,50.52,0,0,1,499,72.6l-1-1.33c-.23-.31-.35-.46-.37-.45a2.63,2.63,0,0,0,.28.5c.2.32.49.8.9,1.4a45.07,45.07,0,0,0,3.8,4.75,47.73,47.73,0,0,0,6.74,6A46.89,46.89,0,0,0,519.06,89a105,105,0,0,0,10.53,3.39,26.92,26.92,0,0,1,8.07,3.76,14.65,14.65,0,0,1,4.09,4.37C542.46,101.71,542.67,102.48,542.72,102.46Z" style="fill: #455a64"></path><path d="M539.91,104a5.2,5.2,0,0,0-.38-2.11,9.9,9.9,0,0,0-3.64-4.56,21.8,21.8,0,0,0-8.07-3.16,48.41,48.41,0,0,1-10-3.19,42.87,42.87,0,0,1-8.95-5.52,44.66,44.66,0,0,1-6.14-6,47.26,47.26,0,0,1-3.42-4.71c-.33-.55-.6-1-.82-1.35a2.63,2.63,0,0,0-.31-.46,1.9,1.9,0,0,0,.23.51c.19.37.44.83.74,1.4a38.54,38.54,0,0,0,3.31,4.83,41.55,41.55,0,0,0,6.12,6.16,42,42,0,0,0,9,5.62,46.59,46.59,0,0,0,10.14,3.18,22.14,22.14,0,0,1,8,3,9.92,9.92,0,0,1,3.66,4.34A12.1,12.1,0,0,1,539.91,104Z" style="fill: #455a64"></path><path d="M502.62,121.49a5.72,5.72,0,0,0,2-.47,2.33,2.33,0,0,0,1.22-1.64,4.32,4.32,0,0,0-.43-2.6c-.16-.37-.35-.73-.53-1.08l.34.12a39.24,39.24,0,0,1-5.58,2.35,40.1,40.1,0,0,1,5.36-2.82l.22-.1.12.22c.18.34.37.71.55,1.1a4.61,4.61,0,0,1,.42,2.91,2.86,2.86,0,0,1-3.68,2Z" style="fill: #263238"></path><polygon points="499.04 147.43 527.54 144.35 532.75 149.1 512.41 161.06 503.43 165.71 494.57 163.02 491.76 157.73 499.04 147.43" style="fill: #ffbf9d"></polygon><path d="M460.63,182.13s8.93-17.14,11.14-20.89c3.77-6.38,10.81-10,10.81-10L499,147.43s-1.71,8.25,8.54,8.82c13,.72,21.12-11.77,21.12-11.77s14.87,1.53,19,3.25,15.72,6.59,17.43,22l4,25.21-31.41,2.39,8.19,34.14c8.55,11,16.73,17.9,18.63,36.95,0,0-94.87-1.21-97.32-.34-1.15.41,15.95-28.09,13.21-42l-5.18-12.56a48.86,48.86,0,0,1-3.66-15.79c-.2-3.57-.1-6.27-.1-6.27S463.37,188.68,460.63,182.13Z" style="fill: #fca311"></path><path d="M485.38,242.72,538,226.91l-.38-29.55,26.82-2s-.37,21.54-2.83,33.55c-2.26,11.08-5.51,16.69-9.14,20s-68.53,7-68.53,7Z" style="fill: #ffbf9d"></path><path d="M474,211.83c-.38-1.27-1.13-2.06-2-2.06H434l-2.48,4.41,13.25,39.6c.76,2.36,2.2,3.85,3.78,3.9l37,1.33c1.17,0,1.93-2.06,1.41-3.83Z" style="fill: #455a64"></path><path d="M500.94,240.49l-6.07-4.68a13.13,13.13,0,0,0-10.22-4.89l-5.19-.89.92,3.22s-17.46.91-18.06,2.91v1l13.83.93s-11.77,0-12.47,0-3.29-.2-3.23,1.18c0,1.14,1.38,2,3.42,2.33.83.12,11,1,11,1l-11.22-.11c-1.26,0-1.1,2-.36,2.27.59.2,15,4.39,15,4.39s-2.42,1.62-4.39,1.48-5.36-2.68-6.06-1.48-.57,1.9-.14,2.18a48.74,48.74,0,0,0,6.62,3.1c1.55.43,14.21,2.43,14.21,2.43L499,255.54Z" style="fill: #ffbf9d"></path><path d="M473.59,233.65a45.51,45.51,0,0,1,5.67-.21,46.29,46.29,0,0,1,5.68.15,45.6,45.6,0,0,1-5.68.21A43.91,43.91,0,0,1,473.59,233.65Z" style="fill: #ff9a6c"></path><polygon points="472.51 211.11 434.9 210.82 433.2 213.68 470.46 213.61 477.56 233.43 479.93 233.28 472.51 211.11" style="fill: #fff"></polygon><path d="M479.56,163.19c.09.05-.76,1.65-2,4.31a74.36,74.36,0,0,0-6.1,21.86c-.35,2.9-.45,4.71-.55,4.7a5.28,5.28,0,0,1-.06-1.27c0-.83.05-2,.17-3.48a61.59,61.59,0,0,1,2-11.28,62.23,62.23,0,0,1,4.09-10.72c.66-1.31,1.23-2.36,1.66-3.06A5,5,0,0,1,479.56,163.19Z" style="fill: #263238"></path><path d="M510,215.5a3.75,3.75,0,0,1-1-.39,9.22,9.22,0,0,1-1.18-.59,15.32,15.32,0,0,1-1.48-.91,21.75,21.75,0,0,1-3.47-3,24.38,24.38,0,0,1-3.32-4.47,24.84,24.84,0,0,1-2.15-5.14,21.26,21.26,0,0,1-.76-4.49,14.7,14.7,0,0,1,0-1.74,8.07,8.07,0,0,1,.1-1.32,4.17,4.17,0,0,1,.2-1.1c.13,0-.08,1.6.17,4.13a23.67,23.67,0,0,0,.87,4.35,24.16,24.16,0,0,0,5.34,9.39,23.15,23.15,0,0,0,3.3,3C508.61,214.75,510.08,215.38,510,215.5Z" style="fill: #263238"></path><path d="M545.37,123.75,527.85,120c0,16.06-4.31,28.65-7.37,37.11s-5.67,18-3.47,26.83c.8,3.2,2.46,6.41,5.07,7.33a6.25,6.25,0,0,0,5.44-1.06c3.73-2.45,6.13-7.16,7.75-12s2.64-9.93,4.53-14.58c1.61-3.95,3.84-7.52,5-11.68S547.67,128.9,545.37,123.75Z" style="fill: #263238"></path><path d="M426.37,306.58s-9.78,2.12-18.51.81c-8.19-1.23-26.51,0-26.51,10.83,0,12,24.45,9.06,34,7.15s19-3.63,19-3.63Z" style="fill: #455a64"></path><path d="M404.42,322a21.22,21.22,0,0,1-1.18-4.19,19.58,19.58,0,0,1-.72-4.29,21.22,21.22,0,0,1,1.18,4.19A20.33,20.33,0,0,1,404.42,322Z" style="fill: #263238"></path><path d="M407.76,322.16a20.64,20.64,0,0,1-.83-4.3,20.14,20.14,0,0,1-.36-4.35,20.27,20.27,0,0,1,.83,4.29A21,21,0,0,1,407.76,322.16Z" style="fill: #263238"></path><path d="M411,320.9a30.71,30.71,0,0,1-.91-7.56,16.22,16.22,0,0,1,.68,3.75A15.33,15.33,0,0,1,411,320.9Z" style="fill: #263238"></path><path d="M416,319.64a8.62,8.62,0,0,1-1.26-3.22,8.73,8.73,0,0,1-.36-3.44,24,24,0,0,1,.81,3.33A26,26,0,0,1,416,319.64Z" style="fill: #263238"></path><path d="M417.12,315.24a4.32,4.32,0,0,1,1.28-.09,10.93,10.93,0,0,1,3.43.68,3.66,3.66,0,0,1,1.06.57,1.58,1.58,0,0,1,.66,1.19,1.81,1.81,0,0,1-2.21,1.61,4.63,4.63,0,0,1-2.56-1.82,7.72,7.72,0,0,1-1.44-3,7.61,7.61,0,0,1,1.08-6.23,1.25,1.25,0,0,1,.72-.44,1,1,0,0,1,.82.26,2.18,2.18,0,0,1,.61,1.31,6.84,6.84,0,0,1-1.78,5.53,6.47,6.47,0,0,1-.71.64,1.12,1.12,0,0,1-.29.17s.34-.31.86-.93a7.1,7.1,0,0,0,1.47-3,6.33,6.33,0,0,0,.06-2.31,1.76,1.76,0,0,0-.5-1.06.61.61,0,0,0-.94.16,7.31,7.31,0,0,0-.94,5.83,7.19,7.19,0,0,0,1.35,2.84,4.18,4.18,0,0,0,2.26,1.67,1.41,1.41,0,0,0,1.75-1.17,1.23,1.23,0,0,0-.5-.93,3.89,3.89,0,0,0-1-.54,11.87,11.87,0,0,0-3.32-.79C417.58,315.26,417.12,315.28,417.12,315.24Z" style="fill: #263238"></path><path d="M433.4,320.14a.76.76,0,0,1-.25.08l-.73.19-2.84.64c-2.46.54-6,1.3-10.49,2.16s-9.75,1.83-15.71,2.64a42.22,42.22,0,0,1-9.43.47,20.4,20.4,0,0,1-4.95-.94,13.87,13.87,0,0,1-2.37-1.06,7.2,7.2,0,0,1-2.08-1.68l0,0a4.75,4.75,0,0,1-.85-1,6.36,6.36,0,0,1-.5-5.26,8.47,8.47,0,0,1,3.14-4.1,15.74,15.74,0,0,1,4.46-2.21c.78-.22,1.54-.49,2.31-.66s1.53-.36,2.3-.47c6.13-1,11.7-.48,16.33-.47,2.33,0,4.42,0,6.26-.14a38.7,38.7,0,0,0,4.68-.59l1.69-.35,1.22-.35.75-.21a1,1,0,0,1,.26-.05l-.25.1-.74.25-1.2.39-1.69.4a41,41,0,0,1-4.7.68c-1.84.13-3.95.22-6.28.2-4.64,0-10.21-.41-16.26.57-.76.1-1.5.31-2.27.47s-1.5.44-2.27.66a15.37,15.37,0,0,0-4.33,2.15,7.9,7.9,0,0,0-3,3.87,5.89,5.89,0,0,0,.45,4.87,4.67,4.67,0,0,0,.76.93h0l0,0a7.32,7.32,0,0,0,1.93,1.54,14.16,14.16,0,0,0,2.29,1,20.31,20.31,0,0,0,4.83.93,42.94,42.94,0,0,0,9.35-.44c5.94-.79,11.25-1.73,15.7-2.54s8-1.53,10.52-2l2.85-.56.74-.13Z" style="fill: #263238"></path><path d="M397.64,325.94a15.49,15.49,0,0,1-.24-2.5c-.11-1.54-.29-3.67-.6-6s-.7-4.43-1-5.95a17.22,17.22,0,0,1-.43-2.47,11,11,0,0,1,.75,2.4,54.47,54.47,0,0,1,1.61,12A11.48,11.48,0,0,1,397.64,325.94Z" style="fill: #263238"></path><g style="opacity: .4"><polygon points="423.36 307.11 429.56 322.63 434.37 321.74 425.16 306.58 423.36 307.11"></polygon></g><path d="M562.76,259.09c.22,2.45-11.29,10.53-18.3,6.77h0A29.23,29.23,0,0,0,513.06,242h0a29.25,29.25,0,0,0-15.88,6.51L484.57,259l-37.94-2.09-5-12.3c-7-2.62-13.57-5-19.34-6.6a24.59,24.59,0,0,0-20,3l-.32.21a24.6,24.6,0,0,0-10.59,26.23h0c1.49,6.41,6.26,10.93,11.11,15.4C411,290.71,426,304.31,426,304.31l-1.48,1.16,9.89,16.27,20.35-6.28c13.77-2,42.82-5.74,42.82-5.74l-8.31-4.9,1.9-.59c15.82,13.48,35.17,19.69,59.13,9.23C562.08,307.92,577.88,293.74,562.76,259.09Z" style="fill: #263238"></path><path d="M527.6,283.12l-.19.18c-.16.12-.35.28-.6.49l-2.31,1.84L522.82,287c-.62.49-1.34.94-2.09,1.47l-2.41,1.65c-.43.29-.86.6-1.32.9l-1.45.87c-2,1.18-4.11,2.53-6.52,3.75-1.2.63-2.42,1.31-3.72,1.95l-4,1.9c-5.54,2.53-11.74,5.06-18.38,7.32-13.28,4.58-25.56,7.87-34.35,10.54-2.21.65-4.2,1.26-5.94,1.81s-3.24,1-4.46,1.41l-2.81.92-.74.22-.25.07s.07-.05.24-.11l.72-.27,2.78-1c1.21-.44,2.71-.93,4.45-1.49s3.71-1.21,5.91-1.88c8.77-2.75,21-6.09,34.29-10.66,6.64-2.26,12.83-4.77,18.36-7.27l4-1.88c1.29-.63,2.52-1.31,3.72-1.92,2.41-1.21,4.55-2.54,6.53-3.69l1.45-.86c.46-.29.9-.59,1.33-.88l2.43-1.62c.75-.51,1.48-.95,2.1-1.43l1.7-1.29,2.36-1.78.63-.45A1,1,0,0,1,527.6,283.12Z" style="fill: #455a64"></path><path d="M529.36,290.72s-.24.17-.73.39-1.19.51-2.08.84a53.31,53.31,0,0,1-14.48,3.11c-1,.06-1.72.09-2.25.09a2.9,2.9,0,0,1-.83,0,28.41,28.41,0,0,1,3-.37c1.87-.21,4.46-.57,7.28-1.18s5.32-1.33,7.12-1.91S529.34,290.66,529.36,290.72Z" style="fill: #455a64"></path><path d="M494.27,251.22c.08.11-15.48,12.33-34.75,27.31s-35,27-35,26.94,15.48-12.33,34.75-27.31S494.19,251.12,494.27,251.22Z" style="fill: #455a64"></path><path d="M490.22,303.45s.07,0,.2.15l.56.47c.49.42,1.17,1.07,2.12,1.84A54.95,54.95,0,0,0,515.89,317c.7.18,1.41.31,2.14.43s1.45.27,2.2.39c1.49.15,3,.41,4.57.45a51.59,51.59,0,0,0,9.66-.29l2.45-.34,2.39-.49a45,45,0,0,0,4.6-1.23,44.25,44.25,0,0,0,8.22-3.63,33,33,0,0,0,11.16-10.18,28.14,28.14,0,0,0,4.11-9.36c.27-1.19.41-2.13.49-2.76,0-.3.06-.54.08-.73a1.43,1.43,0,0,1,0-.25,1,1,0,0,1,0,.25c0,.2,0,.44,0,.74a21.44,21.44,0,0,1-.39,2.79,27.34,27.34,0,0,1-4,9.52,33,33,0,0,1-11.22,10.4,44,44,0,0,1-8.31,3.69,45.1,45.1,0,0,1-4.64,1.26l-2.42.49-2.47.35a51.68,51.68,0,0,1-9.75.28c-1.58-.05-3.11-.31-4.62-.47-.75-.12-1.48-.27-2.21-.39s-1.46-.26-2.16-.45A55.68,55.68,0,0,1,501.46,312a52.64,52.64,0,0,1-8.49-5.91c-.93-.8-1.6-1.48-2.07-1.92l-.52-.51C490.27,303.52,490.21,303.46,490.22,303.45Z" style="fill: #455a64"></path><path d="M425.3,249.1a10.68,10.68,0,0,0,1.52.91c1,.54,2.4,1.4,4.09,2.5s3.66,2.52,5.75,4.19,4.31,3.62,6.56,5.74c4.48,4.27,8.35,8.34,11.23,11.2,1.44,1.43,2.62,2.58,3.46,3.36a11.9,11.9,0,0,0,1.32,1.16,12,12,0,0,0-1.18-1.31l-3.34-3.46c-2.82-2.93-6.64-7-11.14-11.32-2.26-2.13-4.5-4.07-6.61-5.74a65.93,65.93,0,0,0-5.85-4.12,47.22,47.22,0,0,0-4.2-2.37A12.64,12.64,0,0,0,425.3,249.1Z" style="fill: #455a64"></path><path d="M501.39,308.26c-4.1-2.18-8.71-.89-12.63.43-2.61.88-5.33,2.28-8,1.53-1.92-.54-3.34-2.1-4.81-3.45a30.2,30.2,0,0,0-22.1-7.91,9,9,0,0,0-6.07,2.74c-4,4.36-1,10,2.61,13.71a39.76,39.76,0,0,0,24,11.59c7.51.79,17.82-.25,25.43-3.51,4.69-2,7.09-7.54,4.63-12A7.66,7.66,0,0,0,501.39,308.26Z" style="fill: #455a64"></path><g style="opacity: .4"><path d="M501.38,311.76c-4.1-2.19-8.71-.9-12.63.42-2.61.88-5.33,2.28-8,1.53-1.92-.54-3.34-2.09-4.81-3.44a30.21,30.21,0,0,0-22.1-7.92,9,9,0,0,0-6.07,2.74,7,7,0,0,0-1.69,3.06,16,16,0,0,0,4.3,7.16,39.76,39.76,0,0,0,24,11.59c7.51.79,17.82-.25,25.43-3.51a9.27,9.27,0,0,0,5.41-6.45,7.91,7.91,0,0,0-.78-2.07A7.58,7.58,0,0,0,501.38,311.76Z"></path></g><path d="M505.27,316.94a7.39,7.39,0,0,0-1-2.43,7.85,7.85,0,0,0-2.19-2.14,8.89,8.89,0,0,0-3.77-1.45c-3.05-.35-6.57.93-10.49,2-1.94.51-4.06,1.3-6.37,1a8.51,8.51,0,0,1-3.28-1.14,20.58,20.58,0,0,1-2.82-2.12,30.73,30.73,0,0,0-16.79-8,18,18,0,0,0-5,0,11.07,11.07,0,0,0-3.84,1.34,9.92,9.92,0,0,0-2.35,2,23.15,23.15,0,0,0-1.51,2.18,8.53,8.53,0,0,1,1.35-2.32,9.56,9.56,0,0,1,2.35-2.12,10.93,10.93,0,0,1,3.94-1.46,17.55,17.55,0,0,1,5.08,0,29,29,0,0,1,5.69,1.26,33.54,33.54,0,0,1,5.88,2.6A24.27,24.27,0,0,1,473,308c.91.71,1.78,1.5,2.66,2.26a20.32,20.32,0,0,0,2.74,2.07,7.84,7.84,0,0,0,3.06,1.07c2.15.28,4.21-.45,6.17-1,3.9-1,7.49-2.3,10.68-1.88a8.79,8.79,0,0,1,6.09,3.86,5.44,5.44,0,0,1,.76,1.85A2.76,2.76,0,0,1,505.27,316.94Z" style="fill: #263238"></path><path d="M505.27,316.94a7.39,7.39,0,0,0-1-2.43,7.85,7.85,0,0,0-2.19-2.14,8.89,8.89,0,0,0-3.77-1.45c-3.05-.35-6.57.93-10.49,2-1.94.51-4.06,1.3-6.37,1a8.51,8.51,0,0,1-3.28-1.14,20.58,20.58,0,0,1-2.82-2.12,30.73,30.73,0,0,0-16.79-8,18,18,0,0,0-5,0,11.07,11.07,0,0,0-3.84,1.34,9.92,9.92,0,0,0-2.35,2,23.15,23.15,0,0,0-1.51,2.18,8.53,8.53,0,0,1,1.35-2.32,9.56,9.56,0,0,1,2.35-2.12,10.93,10.93,0,0,1,3.94-1.46,17.55,17.55,0,0,1,5.08,0,29,29,0,0,1,5.69,1.26,33.54,33.54,0,0,1,5.88,2.6A24.27,24.27,0,0,1,473,308c.91.71,1.78,1.5,2.66,2.26a20.32,20.32,0,0,0,2.74,2.07,7.84,7.84,0,0,0,3.06,1.07c2.15.28,4.21-.45,6.17-1,3.9-1,7.49-2.3,10.68-1.88a8.79,8.79,0,0,1,6.09,3.86,5.44,5.44,0,0,1,.76,1.85A2.76,2.76,0,0,1,505.27,316.94Z" style="fill: #263238"></path><path d="M454.41,316a9.73,9.73,0,0,1,2.1-1.46,60.1,60.1,0,0,1,11.13-5.23,10.05,10.05,0,0,1,2.46-.69,13.39,13.39,0,0,1-2.32,1.05c-1.45.6-3.44,1.45-5.61,2.47s-4.08,2-5.47,2.74A14.71,14.71,0,0,1,454.41,316Z" style="fill: #263238"></path><path d="M455.81,320.06a147.16,147.16,0,0,1,16.26-7.86,77.21,77.21,0,0,1-8,4.18A73.06,73.06,0,0,1,455.81,320.06Z" style="fill: #263238"></path><path d="M472.8,321.84c-.08.13-4.45-2.48-9.76-5.83s-9.54-6.16-9.46-6.29,4.45,2.48,9.76,5.83A112.56,112.56,0,0,1,472.8,321.84Z" style="fill: #263238"></path><path d="M475.26,317.58a13,13,0,0,1-2.14-1.43c-1.28-.93-3.06-2.21-5-3.58S464.27,310,463,309.1a12.93,12.93,0,0,1-2.09-1.5,11,11,0,0,1,2.3,1.17c1.37.8,3.24,2,5.23,3.34s3.74,2.72,5,3.73A10.67,10.67,0,0,1,475.26,317.58Z" style="fill: #263238"></path><path d="M549.48,286.6a5.75,5.75,0,0,1-.37-1.29c-.22-.94-.51-2.13-.85-3.55-.73-3-1.82-7.1-3.26-11.58s-3-8.45-4.1-11.31l-1.37-3.38a6.85,6.85,0,0,1-.46-1.26,6.24,6.24,0,0,1,.64,1.18c.39.77.91,1.9,1.53,3.32,1.24,2.83,2.81,6.8,4.26,11.29s2.48,8.64,3.12,11.66c.32,1.51.56,2.74.69,3.59A7.56,7.56,0,0,1,549.48,286.6Z" style="fill: #455a64"></path><path d="M448.36,147.62a6.5,6.5,0,0,1,1.35-3.45,3.69,3.69,0,0,1,1.19-1.26,1.43,1.43,0,0,1,1.64.09,2,2,0,0,1,.45.87,21.2,21.2,0,0,1,.84,3.69" style="fill: #ffbf9d"></path><rect x="392.03" y="147.88" width="72.33" height="82.18" style="fill: #fff"></rect><path d="M464.36,230.06s0-.14,0-.4,0-.65,0-1.15c0-1,0-2.51,0-4.44,0-3.9,0-9.57-.07-16.78,0-14.41-.06-34.92-.11-59.41l.23.23-72.32,0h0l.26-.26c0,30.29,0,58.54,0,82.18l-.22-.22,52.43.11,14.68.06,3.87,0,1.35,0-1.3,0-3.83,0-14.64,0-52.56.12h-.22v-.22c0-23.64,0-51.89,0-82.18v-.26H392l72.32,0h.23v.23c0,24.55-.09,45.11-.12,59.56,0,7.18,0,12.84-.06,16.72,0,1.92,0,3.39,0,4.4,0,.49,0,.86,0,1.12S464.36,230.06,464.36,230.06Z" style="fill: #263238"></path><path d="M442.13,143c-1.37-.67-2.88.56-2.88.56a2.74,2.74,0,0,0-2.38-2.34c-2.29-.51-3.56,1.79-3.56,1.79a3.29,3.29,0,0,0-3.17-2.27c-2.43.1-2.68,2.78-2.68,2.78a4.16,4.16,0,0,0-3.26-1.82,2.16,2.16,0,0,0-1.89,1.13h0a2.19,2.19,0,0,0-.26,1.44c.29,1.68,1,5.66,1.79,6.7,1.05,1.42,3.86,1.06,3.86,1.06.8,4.78,4.58,2.54,4.58,2.54s-.07.46,2.21.36,2.77-4.89,2.77-4.89a3.78,3.78,0,0,0,1.9.59c1.53.21,3.4-3.14,3.4-3.14l3.84,0S443.51,143.63,442.13,143Z" style="fill: #ffbf9d"></path><path d="M439.46,143.47c0-.06-.43.12-.93.59a5.66,5.66,0,0,0-1.39,2.27,5.6,5.6,0,0,0-.21,2.65c.12.67.33,1,.41,1s-.23-1.64.39-3.48S439.58,143.61,439.46,143.47Z" style="fill: #ff9a6c"></path><path d="M433.63,142.86a19.29,19.29,0,0,0-1.13,11.71c.19,0-.06-2.66.27-5.88S433.81,142.91,433.63,142.86Z" style="fill: #ff9a6c"></path><path d="M427.46,143.18c-.17-.06-.8,2-.57,4.64a12.14,12.14,0,0,0,1,4.57c.18,0-.17-2.09-.38-4.61S427.62,143.22,427.46,143.18Z" style="fill: #ff9a6c"></path><path d="M420.59,195.31l-.17-.08Z" style="fill: #fca311"></path><path d="M420.8,195.39l-.21-.08Z" style="fill: #fca311"></path><path d="M420.42,195.23h0Z" style="fill: #fca311"></path><path d="M420.39,195.22l-.19-.08Z" style="fill: #fca311"></path><polygon points="458.62 180.8 438.27 180.45 438.27 180.45 427.94 163.74 422.83 183.15 400.79 186.92 420.8 195.39 418.37 214.48 430.8 203.44 430.8 203.44 451.03 214.48 442.89 192.2 458.62 180.8" style="fill: #fca311"></polygon><path d="M420.2,195.14Z" style="fill: #fca311"></path><path d="M417.53,163.2l-5.66-.1h0L409,158.46l-1.42,5.39-6.12,1.05,5.56,2.35.5.21-1.18,5.1,3.46-3.07h0l5.62,3.07-2.27-6.19Z" style="fill: #fca311"></path><path d="M402.23,199.37l.58,2h0l-1.35,1.54,2.09-.08,1,2.08.24-2.25,0-.2,1.95-.14-1.48-.9h0l.49-2.35-2,1.49Z" style="fill: #fca311"></path><path d="M432.6,216.9l.58,2h0l-1.35,1.53,2.09-.08,1,2.08.24-2.25,0-.2,1.95-.14-1.47-.9h0l.48-2.35-2,1.49Z" style="fill: #fca311"></path><path d="M450.35,194.67l.58,2h0l-1.35,1.53,2.09-.08,1,2.08L453,198l0-.2,1.95-.13-1.47-.91h0l.48-2.34-2,1.48Z" style="fill: #fca311"></path><path d="M438.28,163.75l.58,2h0l-1.35,1.54,2.09-.08,1,2.07.24-2.24,0-.2,2-.14-1.48-.9h0l.49-2.35-2,1.49Z" style="fill: #fca311"></path><path d="M454.42,174l-2.13-3.59h0l1.82-3.6L450.16,168l-3-3.45.67,4.41.06.39-3.66,1.24,3.26,1h0l.25,4.72,3-3.81Z" style="fill: #fca311"></path><path d="M409.21,207.44l-1.9,2.93h0l-3.37,0,2.35,2.51-1.45,3.55,3.05-2.14.27-.19,2.29,2.28-.48-2.81h0l3.45-1.94-4-.84Z" style="fill: #fca311"></path><circle cx="425.13" cy="188.85" r="1.07" style="fill: #263238"></circle><path d="M438.48,188.85a1.07,1.07,0,1,1-1.07-1.07A1.07,1.07,0,0,1,438.48,188.85Z" style="fill: #263238"></path><path d="M435.33,190.37c.48.39.58,1.24-.07,2.2a4.75,4.75,0,0,1-3.89,1.91,4.8,4.8,0,0,1-3.93-1.85c-.66-.95-.57-1.81-.1-2.21a3.1,3.1,0,0,1,1.9-.47l2.09,0h2.1A3,3,0,0,1,435.33,190.37Z" style="fill: #fff"></path></g><g id="freepik--character-2--inject-63"><path d="M209.45,181.39c.11-.94,1.11-1.4,1.9-1.86,3-1.78,4.15-5.65,4.48-9.2.46-5-.17-10.05.61-15s3.43-10.05,8.05-11.61c3.87-1.31,8.33.31,11.09,3.41l4.48,12.13a37,37,0,0,1-8.84,25.79c-2.07,2.39-4.71,4.6-7.82,4.78a3.9,3.9,0,0,1-3-.94c-1.37-1.36-1-3.66-.53-5.55a14.65,14.65,0,0,1-8.3.09C210.52,183.16,209.34,182.46,209.45,181.39Z" style="fill: #263238"></path><path d="M237.82,149.78a2.56,2.56,0,0,0-3.07-.05,6.12,6.12,0,0,0-2,2.64,18.25,18.25,0,0,0-1.47,10.08,8.33,8.33,0,0,0,2.32,5.16c.95.86,2.51,1.28,3.42.39s.66-2.27.45-3.47a34,34,0,0,1,.66-14.59" style="fill: #fca311"></path><path d="M237.29,148.48c5.15-8.47,18.76-14.78,28.89-10.75,7-1.41,18,.28,25.05,7.76-2,.17-3.25-.48-5.23-.31,7.94,4.82,7.91,21.57,2.94,31.12l-36.6,18.49c-7.25-2.54-12.67-9.12-15.58-16.41C233.07,169.13,232.15,156.94,237.29,148.48Z" style="fill: #263238"></path><path d="M285.84,154.57c-1.86-8-11.68-14.57-19.36-12.34l-15,5.78a12.31,12.31,0,0,0-7.5,13.9l4.09,8.77,6.59,38.15-1.21.7s5.11,17,19.18,13.48c12.64-3.15,7-18.21,7-18.22l-1.86-10s12.56-2.95,12.36-16.78C290,171.14,287.91,163.45,285.84,154.57Z" style="fill: #ffbf9d"></path><path d="M285.4,167.08a1.75,1.75,0,0,1-1.32,2,1.64,1.64,0,0,1-2-1.26,1.75,1.75,0,0,1,1.32-2A1.63,1.63,0,0,1,285.4,167.08Z" style="fill: #263238"></path><path d="M284.83,162.44c-.16.24-1.41-.47-3-.23s-2.69,1.28-2.89,1.1,0-.48.51-.95a4.06,4.06,0,0,1,2.28-1.13,3.76,3.76,0,0,1,2.44.44C284.7,162,284.91,162.34,284.83,162.44Z" style="fill: #263238"></path><path d="M270.2,169.8a1.74,1.74,0,0,1-1.32,2,1.63,1.63,0,0,1-2-1.25,1.76,1.76,0,0,1,1.33-2A1.63,1.63,0,0,1,270.2,169.8Z" style="fill: #263238"></path><path d="M268.23,164.9c-.16.23-1.41-.48-3-.23s-2.68,1.27-2.89,1.09.05-.48.51-.95a4.09,4.09,0,0,1,2.28-1.13,3.75,3.75,0,0,1,2.44.44C268.09,164.44,268.3,164.79,268.23,164.9Z" style="fill: #263238"></path><path d="M275.63,176.71a14.88,14.88,0,0,1,2.87-1c.45-.12.87-.28.91-.54s-.18-.65-.47-1l-1.8-2.54a76,76,0,0,1-4.19-6.72c.19-.1,2.38,2.76,4.89,6.37l1.74,2.57a1.72,1.72,0,0,1,.46,1.39,1.18,1.18,0,0,1-.67.68,4.07,4.07,0,0,1-.77.23A15.09,15.09,0,0,1,275.63,176.71Z" style="fill: #263238"></path><path d="M277.81,194.79a32.88,32.88,0,0,1-18.34-1.72s6.22,8.54,19.1,5Z" style="fill: #ff9a6c"></path><path d="M267.69,160.4c-.12.61-1.74.46-3.6.92s-3.33,1.29-3.62.78c-.13-.25.09-.83.65-1.46a5.3,5.3,0,0,1,2.61-1.52,4.59,4.59,0,0,1,2.89.23C267.35,159.67,267.73,160.11,267.69,160.4Z" style="fill: #263238"></path><path d="M284.38,156.57c-.21.57-1.62.39-3.18.76s-2.77,1.06-3.2.62c-.19-.21-.11-.76.35-1.37a4.1,4.1,0,0,1,2.38-1.46,4.14,4.14,0,0,1,2.76.34C284.16,155.83,284.46,156.29,284.38,156.57Z" style="fill: #263238"></path><path d="M244.88,147.7a16.69,16.69,0,0,1,6.31-4.42,39.2,39.2,0,0,1,16.75-3.46l3.55-1.24c-.91,6.18-7.21,16.15-12.71,18.81-1.74.84-3.68,1.45-5,2.92s-1.74,3.87-1.7,6a55,55,0,0,1,.23,6.41,4.17,4.17,0,0,1-.93,2.55,3,3,0,0,1-3.16.6,5.61,5.61,0,0,1-2.55-2.23,19.51,19.51,0,0,1-2.4-6.88A44.24,44.24,0,0,1,242,157,14.88,14.88,0,0,1,244.88,147.7Z" style="fill: #263238"></path><path d="M248.05,170.68c-.21-.05-8.45-1-6.75,7.19s9.32,4.75,9.29,4.51S248.05,170.68,248.05,170.68Z" style="fill: #ffbf9d"></path><path d="M247.52,179.82s-.12.13-.33.29a1.42,1.42,0,0,1-1,.24c-.9-.13-1.89-1.35-2.24-2.81a4.92,4.92,0,0,1,0-2.12,1.68,1.68,0,0,1,.82-1.32.7.7,0,0,1,.89.22c.16.2.14.37.18.38s.15-.17,0-.5a.88.88,0,0,0-.42-.44,1,1,0,0,0-.8,0,2,2,0,0,0-1.18,1.58,5,5,0,0,0,0,2.38c.39,1.63,1.53,3,2.75,3.08a1.47,1.47,0,0,0,1.22-.49C247.54,180,247.55,179.83,247.52,179.82Z" style="fill: #ff9a6c"></path><path d="M245.22,166.56a13.29,13.29,0,0,1-2.55-1.12,9.81,9.81,0,0,1-2.45-2.11,9.42,9.42,0,0,1-1.93-3.79l-.28.24a9.28,9.28,0,0,0,5.46.69l.47-.09-.36-.33a7.79,7.79,0,0,1-2.4-5.44l-.33.25a21,21,0,0,0,6.46,1,21.57,21.57,0,0,0,10.7-2.93,22.21,22.21,0,0,0,9.54-11.8c.22-.71.39-1.26.46-1.64a2.3,2.3,0,0,0,.11-.59c-.05,0-.25.78-.76,2.16a23.79,23.79,0,0,1-2.95,5.4,22,22,0,0,1-6.64,6,21.26,21.26,0,0,1-16.77,1.9l-.34-.1v.36a8.2,8.2,0,0,0,2.6,5.79l.11-.42a9,9,0,0,1-5.21-.59l-.38-.17.1.41a9.85,9.85,0,0,0,4.67,6,9,9,0,0,0,1.94.79A3.11,3.11,0,0,0,245.22,166.56Z" style="fill: #455a64"></path><path d="M291.13,152.48a2.37,2.37,0,0,0-.11-.66,12.91,12.91,0,0,0-.62-1.78,13.28,13.28,0,0,0-4.14-5.23l-.16.41,4.91.7.73.11-.52-.55a25.82,25.82,0,0,0-3.62-3.2,25.31,25.31,0,0,0-12.37-4.73,21.83,21.83,0,0,0-4,0,7.32,7.32,0,0,0-1.46.23,40.28,40.28,0,0,1,5.44.19,26.27,26.27,0,0,1,12.11,4.79,27.31,27.31,0,0,1,3.56,3.12l.21-.44-4.91-.63-.89-.12.73.53a13.65,13.65,0,0,1,4.16,5C290.86,151.59,291.07,152.5,291.13,152.48Z" style="fill: #455a64"></path><path d="M275.3,180.84c0,.07-.32.32-1,.44a3.92,3.92,0,0,1-2.58-.45,4,4,0,0,1-1.73-2c-.24-.63-.21-1.06-.14-1.07s.21.36.52.89a4.3,4.3,0,0,0,3.89,2.19C274.88,180.85,275.27,180.76,275.3,180.84Z" style="fill: #263238"></path><path d="M235.56,150.38a8.18,8.18,0,0,0-6.29-6.45,3.92,3.92,0,0,0-2.78.32c-1.1.67-1.5,2.05-1.82,3.3a7.57,7.57,0,0,0-.35,2.35,2.59,2.59,0,0,0,1.07,2,3.85,3.85,0,0,0,2.45.28q3.66-.41,7.31-1" style="fill: #fca311"></path><path d="M236.21,150.81a43.13,43.13,0,0,0,4.72-7.35,4.12,4.12,0,0,0,.47-2.93,2.86,2.86,0,0,0-1.65-1.65,5.73,5.73,0,0,0-2.36-.36,3.74,3.74,0,0,0-3.09,1.25,4.18,4.18,0,0,0-.49,2.55c.08,2.58.38,5.16.67,7.73" style="fill: #fca311"></path><path d="M271.27,295.68s18.24,23,29.31,25,18.25,1.35,23.48-2.39,18.54-25.72,18.54-25.72-9.48-5.14-9.93-5.71L318.53,290l-11.59-6.88-21.61-4.78Z" style="fill: #455a64"></path><path d="M342.67,299.2l.86-.94s19.12,7,22.38,3.19L338.5,276.38l-9.17,11C335.4,289,339.92,292.65,342.67,299.2Z" style="fill: #fca311"></path><path d="M338.5,276.38,336.3,279l27.37,23.43a3.9,3.9,0,0,0,2.24-1Z" style="fill: #e0e0e0"></path><path d="M346.76,294.22s-.31.14-.64.54a4.72,4.72,0,0,0-.88,1.8,4,4,0,0,0,0,1.91c.12.46.29.69.33.66a10.16,10.16,0,0,1,.12-2.52A11,11,0,0,1,346.76,294.22Z" style="fill: #263238"></path><path d="M345,293.25a4.19,4.19,0,0,0-1.37,2.42,3.39,3.39,0,0,0,.13,2.6c.13,0-.07-1.16.28-2.55A25.61,25.61,0,0,1,345,293.25Z" style="fill: #263238"></path><path d="M349.57,295.41c0-.1-1,.47-1.65,1.65a2.89,2.89,0,0,0-.48,2.21c.12,0,.25-1,.85-2S349.64,295.51,349.57,295.41Z" style="fill: #263238"></path><path d="M345.86,298.88a2.69,2.69,0,0,0-1.41.66,9.41,9.41,0,0,0-1.29,1.17c-.22.23-.45.49-.68.76a2.94,2.94,0,0,0-.35.45.85.85,0,0,0-.1.7.51.51,0,0,0,.62.3,1.56,1.56,0,0,0,.55-.26,6,6,0,0,0,.8-.67,6.14,6.14,0,0,0,1.05-1.42,2.86,2.86,0,0,0,.46-1.5c-.07,0-.22.56-.72,1.37a6.32,6.32,0,0,1-1,1.27,5.06,5.06,0,0,1-.75.6c-.25.19-.55.25-.57.11s.11-.43.35-.7l.65-.76a10.89,10.89,0,0,1,1.18-1.18C345.33,299.16,345.88,299,345.86,298.88Z" style="fill: #263238"></path><path d="M346,299.15s0-.09,0-.25l0-.12-.08.14a5.91,5.91,0,0,0-.6,1.68,7,7,0,0,0-.13,1.35,6.67,6.67,0,0,0,.06.75,1,1,0,0,0,.12.42.52.52,0,0,0,.43.28.68.68,0,0,0,.61-.43,2.09,2.09,0,0,0,.14-.53,6.09,6.09,0,0,0,.09-.93,5.26,5.26,0,0,0-.21-1.5c-.26-.82-.6-1.2-.64-1.16s.18.48.34,1.27a5.73,5.73,0,0,1,.11,1.44,5.41,5.41,0,0,1-.1.86c0,.31-.17.59-.25.55-.25,0-.26-.68-.29-1.09a7.41,7.41,0,0,1,.06-1.27,11.65,11.65,0,0,1,.38-1.65l-.12,0C345.89,299.11,345.94,299.16,346,299.15Z" style="fill: #263238"></path><path d="M332.67,218.94s-7.8.23-11.94,4.23-19.87,34.15-19.87,34.15l11,26.33,6.13,5.83s8.44-5.07,10.44-11.75A35.32,35.32,0,0,0,330,265.89l5.72,18.59,1.37,9.26s15.77-1.77,15.5-2.14c-.42-.58-1.89-50.4-3-57.21S341.39,218.83,332.67,218.94Z" style="fill: #455a64"></path><path d="M353.8,289.68V291s18.9,7.61,18.74,12.65l-37.15.2.59-14.33C341.54,292.4,347.36,292.69,353.8,289.68Z" style="fill: #fca311"></path><path d="M335.39,303.82l.15-3.45,36,1a3.91,3.91,0,0,1,1,2.26Z" style="fill: #e0e0e0"></path><path d="M353.48,296.12a1.44,1.44,0,0,1-.1-.83,4.64,4.64,0,0,1,.55-1.93,4,4,0,0,1,1.25-1.43c.39-.27.67-.33.69-.28a10.76,10.76,0,0,0-1.6,2A11.85,11.85,0,0,0,353.48,296.12Z" style="fill: #263238"></path><path d="M351.52,295.64a4.15,4.15,0,0,1,.6-2.71c.74-1.38,1.81-1.95,1.85-1.84a20.43,20.43,0,0,0-1.51,2.08A25.34,25.34,0,0,0,351.52,295.64Z" style="fill: #263238"></path><path d="M356.37,297.12a3.25,3.25,0,0,1-.11-2.33c.3-1.31,1.06-2.06,1.12-2s-.47.89-.74,2.08S356.49,297.09,356.37,297.12Z" style="fill: #263238"></path><path d="M355.94,292.06a2.87,2.87,0,0,1-.6-1.44,9.34,9.34,0,0,1-.17-1.72c0-.33,0-.67,0-1a3.08,3.08,0,0,1,0-.58.82.82,0,0,1,.39-.59.52.52,0,0,1,.66.2,1.66,1.66,0,0,1,.24.57,6.35,6.35,0,0,1,.14,1,5.78,5.78,0,0,1-.18,1.75,2.8,2.8,0,0,1-.66,1.42c-.05,0,.22-.56.39-1.49a6.55,6.55,0,0,0,.08-1.64,5.35,5.35,0,0,0-.15-.95c-.07-.31-.25-.55-.36-.46s-.2.39-.2.75l0,1a12,12,0,0,0,.08,1.67C355.74,291.5,356,292,355.94,292.06Z" style="fill: #263238"></path><path d="M356.2,291.93s-.05.07-.19.15l-.11.07,0-.16a5.93,5.93,0,0,1,.68-1.64,6.39,6.39,0,0,1,.81-1.09,6.63,6.63,0,0,1,.54-.52,1.06,1.06,0,0,1,.37-.23.53.53,0,0,1,.52.08.68.68,0,0,1,.16.73,2.66,2.66,0,0,1-.25.48,6.65,6.65,0,0,1-.56.75,4.87,4.87,0,0,1-1.17,1c-.73.44-1.24.49-1.25.44s.46-.24,1.11-.72a5.57,5.57,0,0,0,1.05-1,6.8,6.8,0,0,0,.5-.71c.18-.26.27-.55.18-.57-.18-.18-.65.33-.94.61a7,7,0,0,0-.81,1A12.11,12.11,0,0,0,356,292L356,292C356.12,291.91,356.2,291.91,356.2,291.93Z" style="fill: #263238"></path><path d="M261.7,272.18c0,.43-.58,10.44,1.43,15.87s14.39,16.63,14.39,16.63,7.79-13,15.08-16.4c4.5-2.12,10.1-3,13.73-3.29A11.05,11.05,0,0,1,313,286.5l5,3.39,1.15-1.15c-3.9-8.84-6.07-16.2-5.41-24.62l-4.6,4.25Z" style="fill: #263238"></path><path d="M316.84,288.74a6.15,6.15,0,0,1,1.54,1.3,28.27,28.27,0,0,1,5.54,7.92,6.91,6.91,0,0,1,.69,1.89c-.15.07-1.39-2.73-3.55-5.79S316.73,288.85,316.84,288.74Z" style="fill: #263238"></path><path d="M330.47,239a31.57,31.57,0,0,0-2,3.69,22.37,22.37,0,0,0-1.5,9.91,43.87,43.87,0,0,0,2,9.93l1,2.94a5.6,5.6,0,0,1,.3,1.1,4,4,0,0,1-.49-1c-.29-.67-.67-1.66-1.11-2.9a38.39,38.39,0,0,1-2.21-10,21.33,21.33,0,0,1,1.68-10.09,15.11,15.11,0,0,1,1.57-2.7A4.21,4.21,0,0,1,330.47,239Z" style="fill: #263238"></path><path d="M192.78,297.87s-.69-3.46-.35-4.5,6.75-6.31,8-6.14,3.2.87,4,.69,10.29-.69,10.29-.69l1-2.41,10.94,5.37s-3.27,6.47-5.69,8-17.24,1.8-18.36,1.55-2.76-1.12-1.37-2.51a10.13,10.13,0,0,1,3.63-2.07l-6.23-1.47-2.16,1.12s.26,2.6-.26,3.2S192.78,297.87,192.78,297.87Z" style="fill: #ffbf9d"></path><path d="M243.42,234.64c.48.72,12.88,41.82,16.65,42,42.21,1.93,50.09-7,50.09-7l-12.44-36.82-3.16-29.38-15.44-4.8c-10,6.6-18.12,7.48-26.28.85l-13.66,5.09Z" style="fill: #fca311"></path><path d="M239.18,204.53s-5.36,3.33-7.75,13.56c-1.8,7.66-17.71,66.82-17.71,66.82l13.63,5s12.76-31.26,14.87-38.31,4.7-15.72,4.93-16.43S239.18,204.53,239.18,204.53Z" style="fill: #fca311"></path><path d="M282.23,270.51a54.76,54.76,0,0,1,10-10.43c5.62-4.25,11-7.87,11-7.87l-8.52-25.6s-2.81-18.77-.15-23.22c0,0,7.38,1.14,10.09,6.76.09.19,17.36,34.7,18.45,41.42s-3.85,13.92-9.07,16.74a165.25,165.25,0,0,1-16.94,7.3Z" style="fill: #fca311"></path><path d="M269.26,297.34,291.72,286a2.18,2.18,0,0,0,1-2.94l-1.24-2.45a2.19,2.19,0,0,0-2.95-1l-22.6,11.45a2.19,2.19,0,0,0-.9.86l-1.86,3.2a1,1,0,0,0,.6,1.41l4,1A2.2,2.2,0,0,0,269.26,297.34Z" style="fill: #fca311"></path><path d="M291.7,285.54a16.52,16.52,0,0,0-.66-3.21,15.85,15.85,0,0,0-1.72-2.79,4.29,4.29,0,0,1,2.21,2.6A4.34,4.34,0,0,1,291.7,285.54Z" style="fill: #263238"></path><path d="M268.78,296.82c-.15,0-.22-1.43-.91-3s-1.67-2.63-1.56-2.74a4.77,4.77,0,0,1,2,2.54A4.66,4.66,0,0,1,268.78,296.82Z" style="fill: #263238"></path><path d="M274.23,291.23a8.94,8.94,0,0,1,1.72-1.34,42.52,42.52,0,0,1,4.54-2.63,41.24,41.24,0,0,1,4.84-2,7.58,7.58,0,0,1,2.1-.57c.05.15-3.07,1.25-6.7,3.08S274.32,291.36,274.23,291.23Z" style="fill: #263238"></path><path d="M275.74,286.74a1.79,1.79,0,0,1-2.9-1.44,17,17,0,0,1,.36-3.07c.83-4.14,9.49-12.64,9.49-12.64L297,274.48s.6,3.06-2.27,8.94c-1.3,2.65-4.41,9.81-4.87,10a5.43,5.43,0,0,1-1.74,0,2,2,0,0,1-1.83,1.56c-1.47,0-2.67-.46-2.3-1.56s2.07-14.83,1.93-14.71-3.4,15.44-4,15.54-3.85,1.79-3.95-1.49S280.1,278,280.1,278s-3.32,7.78-4.33,8.7Z" style="fill: #ffbf9d"></path><path d="M292.45,224a2.7,2.7,0,0,1,.27.51c.16.35.39.86.67,1.53.57,1.33,1.36,3.27,2.31,5.67s2.06,5.3,3.29,8.47,2.75,6.62,3.93,10.41l.35,1,.06.17-.16.12-4.57,3.19a47.8,47.8,0,0,0-4.1,3.12c-2.5,2.15-4.78,4-6.57,5.73a46,46,0,0,0-4,4.28c-.87,1.07-1.33,1.68-1.36,1.66a1.8,1.8,0,0,1,.28-.48c.2-.31.51-.75.93-1.3a37.14,37.14,0,0,1,3.89-4.42c1.77-1.75,4-3.66,6.51-5.83a47.52,47.52,0,0,1,4.12-3.17l4.56-3.21-.1.29c-.11-.32-.23-.67-.34-1-1.17-3.75-2.7-7.2-3.89-10.41s-2.27-6.06-3.19-8.5l-2.15-5.74c-.24-.63-.43-1.15-.58-1.56A2.1,2.1,0,0,1,292.45,224Z" style="fill: #263238"></path><path d="M239.16,221.73c.08,0,.26,1.4.68,3.64a66.11,66.11,0,0,0,5.54,16.9c1,2.06,1.68,3.3,1.61,3.35a4.08,4.08,0,0,1-.58-.82c-.35-.54-.82-1.34-1.36-2.36a54.06,54.06,0,0,1-3.51-8.27,52.64,52.64,0,0,1-2.06-8.74c-.16-1.13-.27-2.06-.3-2.7A3.84,3.84,0,0,1,239.16,221.73Z" style="fill: #263238"></path><path d="M264.9,246.38c.46-5.68.66-18.42.66-18.42a93,93,0,0,1,15.55,15.49l-24.35-6.63,24.55-7.09L264.9,246.38" style="fill: #fff"></path></g><g id="freepik--character-3--inject-63"><path d="M365.91,334.75a1.27,1.27,0,0,0-1.12.32,19.28,19.28,0,0,0-3.29,3l.6,11a2.7,2.7,0,0,0,.29,1.05.93.93,0,0,0,.91.5c.54-.09.76-.73.88-1.27q1.4-6.48,2.2-13.07C366.45,335.66,366.43,335,365.91,334.75Z" style="fill: #ae7461"></path><path d="M363.59,327.42l-35.85,16.83-4.36,22.64c-.7-1.06,26.67,5.22,26.67,5.22.6-2,2.35-9.18,2.95-11.16a6.65,6.65,0,0,0,5.21-2.42,11.84,11.84,0,0,0,2.86-5.18C363.29,343.37,363.5,335.88,363.59,327.42Z" style="fill: #ae7461"></path><path d="M366.9,320.33a6.63,6.63,0,0,0-3.11-11.54,7,7,0,0,0-9-4.54,17.15,17.15,0,0,0-18.94-1.49c.39-1.08.78-2.15,1.18-3.23a19.28,19.28,0,0,0-5.49,3c.08-1.26.17-2.52.25-3.78a7.28,7.28,0,0,0-3.44,4.91A11.72,11.72,0,0,0,314,305.69a7.11,7.11,0,0,0-1.9,3.72,4.11,4.11,0,0,0,1.41,3.79,6.61,6.61,0,0,0-2.21,8.83,11.64,11.64,0,0,0-3.28,4,5.77,5.77,0,0,0,0,5.05,3.9,3.9,0,0,0,4.42,1.95,5.68,5.68,0,0,0,5.44,6.71c-.3,5.82,4.17,9.19,7.86,14.65.3.44,10.9,14.71,24.37,3.27,1.62-1.37,9.93-8.66,11.39-12.88.59-1.7,1.81-7.78,2.09-8.81,2.4-1.38,2.24-4.15,2.2-6.95a5,5,0,0,0,1.11-8.73Z" style="fill: #263238"></path><path d="M362.08,326.27a2.22,2.22,0,0,1,.27.61,3.53,3.53,0,0,1,0,1.92,3.48,3.48,0,0,1-1.89,2.35,3.82,3.82,0,0,1-3.95-.45l.29-.14a4.89,4.89,0,0,1-9.24,2.27l.43-.22a4.48,4.48,0,0,1-2.15,5.93,5.86,5.86,0,0,1-6.73-1.66,8.35,8.35,0,0,1-1.91-4.85h.51a4.62,4.62,0,0,1-9.19.32l.45,0a3.85,3.85,0,0,1-2.31,3.11,8.73,8.73,0,0,1-3.45.67,21.75,21.75,0,0,1-3.06-.08,5.7,5.7,0,0,1-2.48-.85,3.37,3.37,0,0,1-1.51-3.21,2.22,2.22,0,0,1,.36-.9c.14-.16.22-.24.23-.23a2.6,2.6,0,0,0-.45,1.15,3.27,3.27,0,0,0,1.51,3c1.29.85,3.24.88,5.38.78a8.38,8.38,0,0,0,3.29-.67,3.43,3.43,0,0,0,2-2.76l.44,0a4.35,4.35,0,0,0,4,3.59,4.29,4.29,0,0,0,4.26-3.88h.51a7.83,7.83,0,0,0,1.79,4.54,5.35,5.35,0,0,0,6.12,1.55,4,4,0,0,0,1.94-5.24l.43-.22a4.57,4.57,0,0,0,5.46,2.18,4.63,4.63,0,0,0,3-4.24v-.38l.29.25a3.54,3.54,0,0,0,3.62.47,3.29,3.29,0,0,0,1.81-2.15,3.67,3.67,0,0,0,.07-1.84C362.16,326.49,362.05,326.29,362.08,326.27Z" style="fill: #455a64"></path><path d="M352.52,318.49a7.8,7.8,0,0,1,0-1.05,7.27,7.27,0,0,0-.61-2.73,6.71,6.71,0,0,0-2.65-3.08,6.93,6.93,0,0,0-4.84-.86,6.74,6.74,0,0,0-1.48.47l-.56.25.21-.57a2.14,2.14,0,0,0-.46-2,2.56,2.56,0,0,0-1.77-.91,4.57,4.57,0,0,0-3.28,1.17,14.16,14.16,0,0,0-1.69,1.79,3.8,3.8,0,0,1-.6.68,3,3,0,0,1,.45-.79,10.63,10.63,0,0,1,1.61-1.94,4.91,4.91,0,0,1,3.55-1.37,3,3,0,0,1,2.11,1,2.59,2.59,0,0,1,.56,2.5l-.35-.32a7.48,7.48,0,0,1,1.6-.51,7.31,7.31,0,0,1,5.2,1,7,7,0,0,1,2.73,3.35,6.8,6.8,0,0,1,.48,2.88A2.87,2.87,0,0,1,352.52,318.49Z" style="fill: #455a64"></path><path d="M342,322.93c-.1,0,.11-1,.07-2.57a5,5,0,0,0-.78-2.53,2.71,2.71,0,0,0-2.68-1.26,2,2,0,0,0-.57.19l-.6.31.23-.63a3.53,3.53,0,0,0-.22-2.88,3.34,3.34,0,0,0-1.8-1.56,5.21,5.21,0,0,0-2.27-.22,2.87,2.87,0,0,1,2.38-.12,3.64,3.64,0,0,1,2.1,1.67,4,4,0,0,1,.3,3.29l-.36-.32a2.38,2.38,0,0,1,.71-.24,3.16,3.16,0,0,1,3.18,1.5,5,5,0,0,1,.74,2.79,9,9,0,0,1-.22,1.91A1.88,1.88,0,0,1,342,322.93Z" style="fill: #455a64"></path><polygon points="363.59 434.96 381.35 412.05 448.29 412.47 431.87 435.17 363.59 434.96" style="fill: #f5f5f5"></polygon><path d="M363.59,435h5.17l14.23,0h48.88l-.2.11L448,412.47l.11-.15.21.41-66.94-.5.15-.07L363.59,435l.29-.39.89-1.17,3.48-4.57,13-16.9.05-.07h.09l66.94.35h.51l-.3.42-.11.14c-5.71,7.9-11.23,15.52-16.32,22.55l-.08.1h-.12l-49.11-.29L368.61,435l-3.75,0h-1A1.64,1.64,0,0,1,363.59,435Z" style="fill: #263238"></path><path d="M377.31,436.27s31.4-10.4,35.62-10.19,9.06,2.68,9.57,7.62,1.75,10.31-4,15.09-40.43,16.93-40.43,16.93Z" style="fill: #ae7461"></path><path d="M280.46,429.2c-4.39,1.19-6.3,6.8-6.39,11.35s1.77,9,4.4,12.67a64,64,0,0,0,9.36,9.9l9-26.67C294.34,432.64,286.09,427.68,280.46,429.2Z" style="fill: #ae7461"></path><path d="M295.18,441.48a14.61,14.61,0,0,0-13.58,13.38c0,.39,0,.76,0,1.09.17,3.94,11.92,12.54,15.52,15.46s57.43,4.19,61.58,3.09c6.24-1.66,32-11.46,32-11.46s7.71-20.8-8.36-28.61c-.86-.41-16.95,1.81-16.95,1.81Z" style="fill: #263238"></path><path d="M364.92,407.53s8.8,22.2,10.75,25,10.18,5.16,14.52,2S408.63,412,408.63,412l-8.1-9.82-13.75,14.53-6.64-14.53Z" style="fill: #ae7461"></path><path d="M419,385.45a1.28,1.28,0,0,0-1.54.17c-2.16,2.06-8.64,8.21-10,8.83-1.61.76-5.49,1.73-6.13,2.7s-.78,5.07-.78,5.07l8.1,9.82s6.57,1.44,7.54,0a7.62,7.62,0,0,0,1.18-2.83,8.06,8.06,0,0,0,1.83-3.77,2.64,2.64,0,0,0-1.51-3.22s2.8-3.57,1.08-5.29a4.3,4.3,0,0,0-4-1.08l-.54-1.29,5.12-7.27a1.28,1.28,0,0,0-.38-1.84Z" style="fill: #ae7461"></path><path d="M387.19,425.26a19,19,0,0,0-.51-9.27,10.37,10.37,0,0,1,.51,9.27Z" style="fill: #6f4439"></path><path d="M408.63,412a7.5,7.5,0,0,1-.82,1.18l-2.35,3.13c-2,2.63-4.65,6.34-7.79,10.29A67,67,0,0,1,393,432a15.31,15.31,0,0,1-4.76,3.4,7.92,7.92,0,0,1-3.88.69,5.78,5.78,0,0,1-1.05-.21,1.08,1.08,0,0,1-.35-.15s.51.12,1.42.16a8.28,8.28,0,0,0,3.71-.83,15.46,15.46,0,0,0,4.57-3.4c1.51-1.54,3-3.43,4.59-5.38,3.13-3.94,5.83-7.62,7.9-10.2,1-1.29,1.87-2.33,2.48-3A7.89,7.89,0,0,1,408.63,412Z" style="fill: #6f4439"></path><path d="M323.93,362.13a16.47,16.47,0,0,0-14.19,7.67c-2.76,4.46-4.11,16.51-5.87,24.3-.39,1.72-3,21-4.58,27.81-.88,3.7-2.19,12.52-2.19,12.52s-3.07-1.56-3.29,1.45,5.16,28.84,22.06,29.84,44.32-12.29,47.92-21.82a10,10,0,0,0,1.36-6.78c-.68-3.76-1.13-5.26-1.13-5.26a4.42,4.42,0,0,0,2.21-2.94c.13-.94-3.6-4.63-3.6-4.63l1.85-26-.39-29.84-12.87-3.36s-3.14,1.08-16,.41A24.94,24.94,0,0,1,323.93,362.13Z" style="fill: #fca311"></path><path d="M364.09,368.43c-4.62-.09-6.2,9.2-5.06,17.83L364,412.32s12.46,2.05,19.79-9C383.74,403.33,370.57,368.56,364.09,368.43Z" style="fill: #fca311"></path><path d="M362.62,369.8s-.52.36-1.27,1.19a9.88,9.88,0,0,0-2.11,4.17,24.52,24.52,0,0,0-.4,7c.1,2.66.32,5.59.7,8.64a105.09,105.09,0,0,0,3.09,15.45c.54,1.95,1,3.51,1.36,4.58a11.83,11.83,0,0,1,.49,1.69,11.62,11.62,0,0,1-.68-1.62c-.39-1.06-.94-2.61-1.52-4.55A91.86,91.86,0,0,1,359,390.88c-.37-3.07-.58-6-.66-8.69a24,24,0,0,1,.53-7.12,9.47,9.47,0,0,1,2.32-4.21,5.85,5.85,0,0,1,1-.84A1.27,1.27,0,0,1,362.62,369.8Z" style="fill: #263238"></path><path d="M315.87,364.05c-.48.27-7.23,4.34-9.4,9.23s-8.15,28.07-8.15,31.88l6.87,2.52Z" style="fill: #fca311"></path><path d="M301.36,409.37l61.95,5.32-.68,9.6a15,15,0,0,1,3.6,4.63L299,423.6Z" style="fill: #e0e0e0"></path><path d="M362.06,442.36a2.32,2.32,0,0,1-.37.43L360.54,444a22.7,22.7,0,0,1-1.88,1.77c-.77.66-1.61,1.45-2.64,2.2l-1.58,1.21c-.56.42-1.17.8-1.79,1.22-1.22.87-2.61,1.65-4.06,2.5a65,65,0,0,1-10,4.45A65.77,65.77,0,0,1,328,459.87c-1.67.2-3.26.43-4.75.49-.75,0-1.47.11-2.16.12h-2c-1.27,0-2.41-.08-3.42-.13a24.59,24.59,0,0,1-2.57-.25l-1.62-.23a2,2,0,0,1-.56-.11,2.47,2.47,0,0,1,.57,0l1.63.13c.7.07,1.56.15,2.57.16s2.14.11,3.4.06l2,0c.68,0,1.4-.1,2.14-.15,1.48-.08,3.05-.32,4.7-.54a61.86,61.86,0,0,0,20.45-7c1.44-.83,2.84-1.6,4.06-2.44.61-.41,1.23-.78,1.79-1.19l1.59-1.18c1-.72,1.89-1.49,2.67-2.12s1.42-1.21,1.94-1.69l1.2-1.1A2.1,2.1,0,0,1,362.06,442.36Z" style="fill: #263238"></path><path d="M330.05,439.94a6.74,6.74,0,0,1,1.36-.08c.87,0,2.13-.06,3.69-.15a76,76,0,0,0,23.67-5.2c1.45-.57,2.62-1.06,3.41-1.42a7.84,7.84,0,0,1,1.27-.49,6.75,6.75,0,0,1-1.18.68c-.77.41-1.92,1-3.36,1.57a66.09,66.09,0,0,1-23.79,5.23c-1.57,0-2.84,0-3.71,0A6.19,6.19,0,0,1,330.05,439.94Z" style="fill: #263238"></path><path d="M341.84,424.33a98.76,98.76,0,0,1,10,0,99.09,99.09,0,0,1,10,.49,93.68,93.68,0,0,1-10,0A93.47,93.47,0,0,1,341.84,424.33Z" style="fill: #263238"></path><path d="M307.27,374.31a3.13,3.13,0,0,1-.06.62c-.07.46-.17,1-.28,1.76-.25,1.59-.61,3.77-1,6.45-.89,5.5-2.11,13-3.45,21.27s-2.63,15.83-3.6,21.26c-.49,2.72-.91,4.91-1.21,6.42-.15.71-.27,1.29-.37,1.74a3.39,3.39,0,0,1-.16.6,2.43,2.43,0,0,1,.06-.62l.27-1.75c.26-1.59.61-3.78,1-6.45.9-5.51,2.11-13,3.46-21.28s2.62-15.82,3.6-21.26c.48-2.71.9-4.91,1.2-6.42.15-.71.28-1.29.37-1.74A2.59,2.59,0,0,1,307.27,374.31Z" style="fill: #263238"></path></g><g id="freepik--character-1--inject-63"><path d="M69.29,351.67c-1.28-.79-23.71,3.29-29.83,4.56A3.3,3.3,0,0,0,37.22,358h0a2.81,2.81,0,0,0,1.45,4l23,8.54a24.24,24.24,0,0,1,2.21,2.25c2.28-5.76,7.33-9.19,13.19-12.4l-2.56-2.73-3.28-4.78a10.44,10.44,0,0,0-1.92-1.16" style="fill: #fca311"></path><path d="M37,358.66a3.11,3.11,0,0,1,2.54-2.5c17-3.46,27.31-5.39,30.7-5.08l1.44,2.4Z" style="fill: #e0e0e0"></path><path d="M54.93,362.49a22.79,22.79,0,0,1-.2,2.91,22.65,22.65,0,0,1-1,2.72,3.81,3.81,0,0,0,1.57-2.61A3.75,3.75,0,0,0,54.93,362.49Z" style="fill: #263238"></path><path d="M57.86,363.49a22.59,22.59,0,0,1-.2,2.9,21.86,21.86,0,0,1-1,2.72,4.76,4.76,0,0,0,1.25-5.62Z" style="fill: #263238"></path><path d="M60.87,364.41a22.79,22.79,0,0,1-.2,2.91A22.65,22.65,0,0,1,59.62,370a3.83,3.83,0,0,0,1.58-2.6A3.78,3.78,0,0,0,60.87,364.41Z" style="fill: #263238"></path><path d="M134.89,360.41c-2.56-7.7-15-27.15-15.67-27.59l-49-14.58A36.36,36.36,0,0,0,62,331.72c-2.8,8.52-3.15,11.2-1.54,17.32,1.68,6.41,6.18,17.38,6.18,17.38L62,373.2s13.12,13.73,19.31,16.89c7.76,4,17,9.06,25.64,5.29,9.46-4.11,5.62-16.46,5.62-16.46s11.67,8.16,21.74,3.52C141.4,379.17,137.17,367.25,134.89,360.41Z" style="fill: #263238"></path><path d="M103.42,349a5.22,5.22,0,0,1,.4,1.21c.22.79.56,1.93,1,3.32.86,2.8,2.2,6.61,3.67,10.84a106.48,106.48,0,0,1,3.27,11c.32,1.43.55,2.6.66,3.41a5.49,5.49,0,0,1,.13,1.27,5.58,5.58,0,0,1-.33-1.23c-.17-.8-.45-2-.81-3.37-.73-2.83-2-6.68-3.42-10.9s-2.75-8.07-3.52-10.9c-.38-1.42-.67-2.57-.82-3.38A6.36,6.36,0,0,1,103.42,349Z" style="fill: #455a64"></path><path d="M112.56,341.17a35.32,35.32,0,0,1-4.35,4.13,34.55,34.55,0,0,1-4.7,3.74,35,35,0,0,1,4.36-4.13A34.6,34.6,0,0,1,112.56,341.17Z" style="fill: #455a64"></path><path d="M79.55,381.92a3.22,3.22,0,0,1-.81-.47,21.34,21.34,0,0,1-2-1.57,41.89,41.89,0,0,1-5.67-6.13,54,54,0,0,1-4.55-7c-.52-.94-.89-1.72-1.13-2.26a3.15,3.15,0,0,1-.32-.88c.07,0,.68,1.14,1.77,3a71.79,71.79,0,0,0,4.65,6.86A53.45,53.45,0,0,0,77,379.61C78.53,381.07,79.6,381.85,79.55,381.92Z" style="fill: #455a64"></path><polygon points="137.67 391.93 148.62 364.17 210.66 363.39 227.12 390.54 137.67 391.93" style="fill: #f5f5f5"></polygon><path d="M137.67,391.93l.46,0,1.34,0,5.11-.11,18.89-.36,63.65-1.12-.22.39c-2.84-4.69-5.82-9.6-8.86-14.6l-7.6-12.55.23.13-62,.7.16-.11c-3.42,8.56-6.18,15.46-8.1,20.24-1,2.38-1.7,4.23-2.21,5.51-.26.61-.45,1.09-.59,1.44s-.21.5-.21.5.05-.16.17-.48l.54-1.41c.49-1.27,1.2-3.12,2.12-5.49l7.95-20.45,0-.11h.12l62-.86h.15l.07.13c2.48,4.07,5,8.27,7.61,12.54,3,5,6,9.91,8.85,14.61l.23.38h-.44l-63.88.86-18.82.22-5,.05h-1.72Z" style="fill: #263238"></path><path d="M135.8,386.37c1.12.06,47.29,13.06,47.29,13.06l45.14-33.34-43.38-8.62Z" style="fill: #fff"></path><path d="M135.8,386.37l48.94-29.1.07,0h.09l43.38,8.59.58.12-.48.35-1.61,1.19-43.55,32.12-.09.07-.1,0L148.77,390c-4.11-1.16-7.35-2.06-9.58-2.68l-3.39-.93.24,0c.15,0,.36,0,.64.12l2.55.64c2.22.56,5.47,1.43,9.61,2.56,8.27,2.24,20.09,5.52,34.31,9.49l-.19,0,43.5-32.19,1.61-1.19.11.46-43.37-8.64.16,0Z" style="fill: #263238"></path><path d="M176.78,379.34a48.83,48.83,0,0,1-7-2,50.88,50.88,0,0,1-6.79-2.53,49.24,49.24,0,0,1,7,2A51.56,51.56,0,0,1,176.78,379.34Z" style="fill: #455a64"></path><path d="M188.74,376.7a74.46,74.46,0,0,1-8.37,2.78,74.43,74.43,0,0,1-8.52,2.27,76.68,76.68,0,0,1,8.37-2.77A76.51,76.51,0,0,1,188.74,376.7Z" style="fill: #455a64"></path><path d="M189.1,370.36a6.56,6.56,0,0,1-2-.3,38,38,0,0,1-4.56-1.39,38.71,38.71,0,0,1-4.36-1.93,6.85,6.85,0,0,1-1.68-1c.07-.14,2.76,1.21,6.22,2.48S189.13,370.21,189.1,370.36Z" style="fill: #455a64"></path><path d="M189,366.41a25.87,25.87,0,0,1-.06,5.08,25.52,25.52,0,0,1-.58,5.05,24.12,24.12,0,0,1,.06-5.08A23.85,23.85,0,0,1,189,366.41Z" style="fill: #455a64"></path><path d="M182.58,381.52a1.41,1.41,0,0,1,.2-.55,2.63,2.63,0,0,1,1.25-1.11,2.09,2.09,0,0,1,2.45.7,1.6,1.6,0,0,1,.14,1.68,1.63,1.63,0,0,1-1.62,1l0-.43a1.55,1.55,0,0,1,1.41,1,1.88,1.88,0,0,1-.15,1.79,3,3,0,0,1-1.45,1.18,6.55,6.55,0,0,1-1.84.42l.12-.45a1.72,1.72,0,0,1,.46,2,2.42,2.42,0,0,1-1.52,1.44,5.94,5.94,0,0,1-1.63.31,14.24,14.24,0,0,1-1.6,0,2.66,2.66,0,0,1-2.58-1.68,1.88,1.88,0,0,1,.3-1.54,2.64,2.64,0,0,1,1.13-.92,6.22,6.22,0,0,1,2.53-.34l-.11.37a2.83,2.83,0,0,1-1.08-2.87,2.59,2.59,0,0,1,1.5-1.8,2.65,2.65,0,0,1,1.48-.2,1.17,1.17,0,0,1,.5.17,3,3,0,0,0-1.88.25,2.33,2.33,0,0,0-1.28,1.65,2.49,2.49,0,0,0,1,2.46l.53.37h-.64a6,6,0,0,0-2.36.35,1.77,1.77,0,0,0-1.14,1.91,1.69,1.69,0,0,0,.8,1,3.13,3.13,0,0,0,1.34.35,9,9,0,0,0,3-.32,1.89,1.89,0,0,0,1.22-1.13,1.23,1.23,0,0,0-.28-1.42l-.54-.4.66-.06a3.7,3.7,0,0,0,2.94-1.35,1.44,1.44,0,0,0,.15-1.35,1.15,1.15,0,0,0-1-.72l0-.43a1.21,1.21,0,0,0,1.21-.7,1.23,1.23,0,0,0-.07-1.31,1.83,1.83,0,0,0-2.09-.67,2.62,2.62,0,0,0-1.22,1C182.68,381.34,182.61,381.53,182.58,381.52Z" style="fill: #455a64"></path><path d="M181.81,381.67c-.09.11-.77-.27-1.52-.85s-1.3-1.15-1.21-1.26.77.26,1.53.85S181.9,381.55,181.81,381.67Z" style="fill: #455a64"></path><path d="M184.27,379.8c-.1.11-.47-.08-.84-.41s-.59-.69-.49-.8.47.08.84.42S184.36,379.69,184.27,379.8Z" style="fill: #455a64"></path><path d="M173.61,368.46a6.66,6.66,0,0,1,1.59.65c1,.46,2.34,1.14,3.92,1.94l.28.14-.21.24-1.7,2-.58.68a2.15,2.15,0,0,1-.73.65,1.27,1.27,0,0,1-1-.17l-.72-.34-2.5-1.19a13.38,13.38,0,0,1-2.25-1.22,12.57,12.57,0,0,1,2.4.88l2.54,1.1.74.32c.26.12.47.21.59.14a1.89,1.89,0,0,0,.53-.51l.58-.68,1.72-2,.07.38c-1.56-.83-2.89-1.57-3.83-2.1A7,7,0,0,1,173.61,368.46Z" style="fill: #455a64"></path><path d="M204.35,369.33s.21-.06.56.09a1.87,1.87,0,0,1,1,1.2,2.15,2.15,0,0,1-.77,2.17,2.69,2.69,0,0,1-2.79.29,2.87,2.87,0,0,1-1.65-2.27,2.11,2.11,0,0,1,1-2.06,2,2,0,0,1,1.52-.27c.36.1.51.26.49.28s-.2-.05-.52-.08a1.91,1.91,0,0,0-1.28.38,1.73,1.73,0,0,0-.72,1.7,2.42,2.42,0,0,0,1.39,1.84,2.22,2.22,0,0,0,2.27-.19,1.7,1.7,0,0,0,0-2.81C204.54,369.41,204.34,369.37,204.35,369.33Z" style="fill: #455a64"></path><path d="M198.45,377c-.12-.08.27-.88.88-1.78s1.18-1.56,1.3-1.48-.27.87-.87,1.77S198.57,377.12,198.45,377Z" style="fill: #455a64"></path><path d="M198.66,371.85c0,.14-.57.28-1.29.32s-1.3-.06-1.31-.21.57-.28,1.29-.31S198.65,371.7,198.66,371.85Z" style="fill: #455a64"></path><path d="M199.84,368c0,.14-.8.05-1.7-.19s-1.59-.56-1.55-.7.79-.05,1.69.19S199.87,367.87,199.84,368Z" style="fill: #455a64"></path><path d="M201.64,366.88c-.14,0-.14-.6,0-1.28s.37-1.21.51-1.18.14.6,0,1.28S201.78,366.91,201.64,366.88Z" style="fill: #455a64"></path><path d="M208.52,366.23c.12.07-.11.72-.68,1.32s-1.2.87-1.27.75.37-.55.89-1.11S208.39,366.16,208.52,366.23Z" style="fill: #455a64"></path><path d="M211.11,371.18c0,.14-.7.17-1.52.06s-1.48-.31-1.46-.45.7-.17,1.52-.07S211.13,371,211.11,371.18Z" style="fill: #455a64"></path><path d="M207.87,376.22c-.14,0-.42-.47-.64-1.15s-.28-1.27-.14-1.31.42.47.64,1.15S208,376.18,207.87,376.22Z" style="fill: #455a64"></path><path d="M202.68,377.91c-.13-.05,0-.65.28-1.33s.63-1.19.76-1.13,0,.65-.28,1.33S202.82,378,202.68,377.91Z" style="fill: #455a64"></path><path d="M180,363.2a11,11,0,0,1-1.39,1l-3.9,2.66-5.83,3.9-3.46,2.28a21.1,21.1,0,0,0-1.76,1.23,1.61,1.61,0,0,0-.52.79.89.89,0,0,0,.18.82l.69.66-.93-.22-.14,0-1.42-.34.3-.14a1.15,1.15,0,0,0,0,1l.17.39-.42,0a3.79,3.79,0,0,0-2.26.32c-.56.35-.84,1.25-.4,1.66l.3.29-.4.12L154,381l-.09-.42a.66.66,0,0,1,.65.36.93.93,0,0,1,.11.65,1.37,1.37,0,0,1-.79.85c-.63.28-1.2.49-1.75.71l-2.83,1.11-1.82.68a2.8,2.8,0,0,1-.66.2,3.5,3.5,0,0,1,.61-.32l1.78-.79,2.79-1.2c.53-.23,1.13-.47,1.7-.74a1,1,0,0,0,.57-.58c0-.24-.14-.55-.31-.5l-.09-.42,4.83-1.53-.1.41a1.37,1.37,0,0,1-.31-1.33,1.93,1.93,0,0,1,.78-1.1,4.21,4.21,0,0,1,2.56-.42l-.25.36a1.7,1.7,0,0,1,0-1.38l.08-.19.21.05,1.42.34.14,0-.24.44a1.66,1.66,0,0,1,.35-2.37,19.48,19.48,0,0,1,1.84-1.26l3.47-2.26,5.89-3.8,4-2.53A11.51,11.51,0,0,1,180,363.2Z" style="fill: #455a64"></path><path d="M165.58,349.78s.26,5.35.61,7.11,9.31,5.53,11.07,5.09,2.37-1,1.23-2-2.2-2.63-1.14-2.54,13.43,4.48,14.66,3.07-2-3.6-2-3.6,5.8,2.64,7.64,2.2,0-3.19,0-3.19-9.75-2.43-12.47-3.4-9-3.77-9.35-5.42S165.58,349.78,165.58,349.78Z" style="fill: #ae7461"></path><path d="M162.67,279.27a44.77,44.77,0,0,1,3.08,11c.74,5.78,6.48,27.85,8,38.66a132.8,132.8,0,0,0,4,18.86l-12.31,5.07s-10.25-19.93-12.67-31.48a174.71,174.71,0,0,1-3.17-23.1c0-.56,2.61-19.56,2.61-19.56l.19-5.59S159.63,272.72,162.67,279.27Z" style="fill: #fca311"></path><path d="M165.7,357.63l-17.2-11.19A1.78,1.78,0,0,0,146,347l-1.22,1.87a1.79,1.79,0,0,0,.52,2.48l17.31,11.26a1.79,1.79,0,0,0,1,.29h3a.77.77,0,0,0,.75-1l-.95-3.24A1.78,1.78,0,0,0,165.7,357.63Z" style="fill: #455a64"></path><path d="M148.21,346.62c.06.14-1.07.65-2,1.8a19.7,19.7,0,0,0-1.31,2.33,4.16,4.16,0,0,1,3.27-4.13Z" style="fill: #263238"></path><path d="M165.53,358.18c.08.13-.89.78-1.72,1.91s-1.19,2.23-1.34,2.19a4.7,4.7,0,0,1,3.06-4.1Z" style="fill: #263238"></path><path d="M159.36,356.62a20,20,0,0,1-5.39-2.76,20.32,20.32,0,0,1-4.65-3.86c.11-.12,2.17,1.61,4.94,3.43S159.43,356.48,159.36,356.62Z" style="fill: #263238"></path><path d="M161.69,354.66s-2.48-12-5.95-13.08-15.81-3.23-15.81-3.23l-3.74,7.56s-.11,6.06,2.05,6.43a12.43,12.43,0,0,0,4.88-.49s1.73,7.3,3.47,6.8,1.85-1.11,2.1-2.35a12.73,12.73,0,0,0,0-3.22s.74,4.88,2.85,5.6,2.47.22,2.6-2S152.9,348,152.9,348l2.4.66s3.12,8.09,5.29,7.69C162.46,356,161.69,354.66,161.69,354.66Z" style="fill: #ae7461"></path><path d="M121,262.93s-20.19,6.61-23.35,10.19S69,320.42,69,320.42s21,28.18,43.54,27.34,21.14-11,21.14-11L151.27,305l5.93-16.85.08-14S132.28,261.45,121,262.93Z" style="fill: #fca311"></path><path d="M157.71,286.37a4.71,4.71,0,0,1-.22,1.11c-.16.71-.44,1.73-.81,3-.73,2.5-1.86,5.92-3.32,9.62s-3,7-4.17,9.29c-.59,1.17-1.08,2.1-1.45,2.73a5.1,5.1,0,0,1-.6,1,4.82,4.82,0,0,1,.42-1.05c.36-.76.79-1.7,1.3-2.8,1.09-2.35,2.55-5.64,4-9.32s2.64-7.08,3.46-9.54c.38-1.15.71-2.13,1-2.93A4.22,4.22,0,0,1,157.71,286.37Z" style="fill: #263238"></path><path d="M101,271.08s-9.87,3.17-9.85,18.87c0,8.2,1,44.57,4.1,48.78s43.83,14.12,43.83,14.12l1.47-14.76-26.11-13.95-.18-29.38S116.55,269,101,271.08Z" style="fill: #fca311"></path><path d="M101,271.08a4.51,4.51,0,0,1,.54-.07,8.69,8.69,0,0,1,1.61-.08,9.07,9.07,0,0,1,5.75,2.11c2.11,1.77,3.71,4.87,4.6,8.63a44.8,44.8,0,0,1,.94,13.11v0c.07,8.34.15,18.32.23,29.38l-.12-.21,26.12,13.93.15.08,0,.17c-.47,4.72-1,9.7-1.46,14.77l0,.3-.29-.08-6.2-1.56c-7.46-1.92-14.72-3.9-21.67-6-3.48-1.07-6.88-2.17-10.15-3.44a31.8,31.8,0,0,1-4.73-2.2A5.17,5.17,0,0,1,95.2,339a3.82,3.82,0,0,1-.67-1.17,17,17,0,0,1-.69-2.46,89,89,0,0,1-1.32-9.68c-.29-3.16-.5-6.22-.68-9.19-.35-5.92-.56-11.45-.69-16.5q-.08-3.78-.15-7.2a53.49,53.49,0,0,1,.19-6.43,22.06,22.06,0,0,1,3.2-9.73A15.06,15.06,0,0,1,99,272.07a9.19,9.19,0,0,1,1.49-.8,3.13,3.13,0,0,1,.55-.19s-.18.07-.53.24a12,12,0,0,0-1.45.84,15.08,15.08,0,0,0-4.45,4.63,22,22,0,0,0-3.08,9.65,53.15,53.15,0,0,0-.15,6.4q.09,3.41.18,7.19c.17,5,.39,10.57.76,16.49.19,3,.41,6,.71,9.16a87.23,87.23,0,0,0,1.33,9.63,15.81,15.81,0,0,0,.67,2.38,3.11,3.11,0,0,0,.59,1,4.46,4.46,0,0,0,1,.74,31.87,31.87,0,0,0,4.65,2.16c3.25,1.25,6.65,2.34,10.11,3.41,7,2.12,14.2,4.09,21.66,6l6.19,1.56-.32.23c.51-5.07,1-10.05,1.48-14.77l.13.25-26.1-14-.12-.06v-.14c0-11.06-.09-21-.13-29.37h0a44.66,44.66,0,0,0-.86-13c-.85-3.73-2.4-6.8-4.45-8.55a9.13,9.13,0,0,0-5.63-2.16,11,11,0,0,0-1.6,0Z" style="fill: #263238"></path><path d="M107.15,330.4a2.72,2.72,0,0,1,.06-1.6,5.79,5.79,0,0,1,5.79-4.44,2.83,2.83,0,0,1,1.56.36c0,.09-.61-.05-1.55,0a6.24,6.24,0,0,0-3.38,1.24,6.32,6.32,0,0,0-2.07,2.93C107.26,329.79,107.23,330.4,107.15,330.4Z" style="fill: #263238"></path><path d="M103.17,216.07c3-1.34,8.73,1,12,1.64s8-15.11,21.56-6.21L122.9,257.29a9,9,0,0,1-13.56-11.58,8.1,8.1,0,1,1-7.44-14.37c-3.2-.92-5.18-4.54-4.73-7.84A10,10,0,0,1,103.17,216.07Z" style="fill: #263238"></path><path d="M184,242.54a41.88,41.88,0,0,0-13-12.93L149.34,269.5c.21,4.26,5.64,6.94,9.57,5.27s5.92-6.41,5.4-10.65a7.11,7.11,0,1,0,9.93-9.75c3.85.89,8.69,1.44,11-1.75C187.38,249.7,185.89,245.59,184,242.54Z" style="fill: #263238"></path><path d="M174.11,233.24a7.23,7.23,0,0,0,4.06-1.93,7.47,7.47,0,0,0,1.89-8.08,6.76,6.76,0,0,0-1.85-2.63,11.11,11.11,0,0,0-7.05-2.48h0c-2.1-5.62-9-9.54-10.91-10.52-5.92-3.12-11.38-4.63-19.38-2.65-6.11,1.51-10.72,9.58-11.55,15.83,8.69,6.43,13.92,8.48,21,16.68,3.82,4.43,7.77,9.72,13.58,10.39a10.14,10.14,0,0,0,10.24-14.61Z" style="fill: #263238"></path><path d="M143.88,275.13l.47-1.82s10.48,2.35,16.07-10.23c2.79-6.26,4.81-15.85,6.59-24.75,1.61-8-4.78-18.16-12.85-19.42l-26.77-2-1,4.26L121,263.61s2.78,9.4,10.55,15.61C136.68,283.35,142.22,281.53,143.88,275.13Z" style="fill: #ae7461"></path><path d="M160.46,249.12a1.73,1.73,0,0,1-2.08,1.26,1.66,1.66,0,0,1-1.33-2,1.75,1.75,0,0,1,2.08-1.27A1.67,1.67,0,0,1,160.46,249.12Z" style="fill: #263238"></path><path d="M162.83,244.7c-.27.16-1.29-1.12-3.11-1.6s-3.38.07-3.52-.21c-.07-.12.25-.46.94-.73a4.89,4.89,0,0,1,2.89-.11,4.6,4.6,0,0,1,2.4,1.55C162.88,244.18,163,244.63,162.83,244.7Z" style="fill: #263238"></path><path d="M145.12,245.06a1.74,1.74,0,0,1-2.08,1.26,1.66,1.66,0,0,1-1.33-2,1.74,1.74,0,0,1,2.07-1.27A1.68,1.68,0,0,1,145.12,245.06Z" style="fill: #263238"></path><path d="M146.07,240.53c-.27.16-1.29-1.13-3.11-1.61s-3.38.08-3.52-.2c-.07-.12.25-.46.94-.73a4.74,4.74,0,0,1,2.89-.11,4.6,4.6,0,0,1,2.4,1.55C146.12,240,146.2,240.45,146.07,240.53Z" style="fill: #263238"></path><path d="M148.32,253.54a16.6,16.6,0,0,1,3.07.34c.47.09.93.13,1.08-.1s.1-.68,0-1.16c-.19-1-.39-2-.59-3.13a75.88,75.88,0,0,1-1.05-8.06c.22,0,1,3.59,1.84,8,.19,1.1.37,2.14.53,3.14a1.77,1.77,0,0,1-.16,1.49,1.19,1.19,0,0,1-.91.34,4.22,4.22,0,0,1-.81-.12A14.09,14.09,0,0,1,148.32,253.54Z" style="fill: #263238"></path><path d="M144.41,273.41A34.59,34.59,0,0,1,128.07,264s1.37,11.16,14.85,13.45A19.84,19.84,0,0,0,144.41,273.41Z" style="fill: #6f4439"></path><path d="M142.36,252.61c.3.06-.22,2,1.09,3.87s3.47,2.19,3.41,2.47-.57.26-1.46.05a5.09,5.09,0,0,1-2.88-1.95,4.4,4.4,0,0,1-.78-3.22C141.88,253,142.23,252.56,142.36,252.61Z" style="fill: #263238"></path><path d="M147.08,234.32c-.35.5-1.8-.33-3.73-.71s-3.63-.25-3.69-.85c0-.28.43-.71,1.22-1a5.34,5.34,0,0,1,3.06-.26,4.86,4.86,0,0,1,2.6,1.44C147.07,233.51,147.25,234.07,147.08,234.32Z" style="fill: #263238"></path><path d="M164.55,238.48c-.43.43-1.67-.33-3.27-.66s-3-.23-3.24-.81c-.08-.28.22-.73.91-1.09a4.36,4.36,0,0,1,5.24,1.19C164.66,237.72,164.75,238.27,164.55,238.48Z" style="fill: #263238"></path><path d="M167.87,230.57a19.8,19.8,0,0,0-9.35-12.16,32.72,32.72,0,0,0-15.05-4.16,97.49,97.49,0,0,0-15.73.85,3.9,3.9,0,0,0-4.45,3.67q-2.33,10.69-4.64,21.38l.71,4.83c2.27.65,4.65-.49,6.61-1.81a32.52,32.52,0,0,0,13.5-20,10.66,10.66,0,0,1,.41,3.39,3.62,3.62,0,0,0,1.42,3c1.65,1,3.7-.64,4.47-2.39s1-3.81,2.35-5.18a21.94,21.94,0,0,0,5.23,8.29c1.1,1.09,2.67,2.12,4.1,1.52a3,3,0,0,0,1.58-2.69,8.91,8.91,0,0,0-.75-3.19,17.17,17.17,0,0,0,6.77,7.08,2.38,2.38,0,0,0,2.07.38C168.09,233,168.11,231.61,167.87,230.57Z" style="fill: #263238"></path><path d="M127.28,221.33a91.21,91.21,0,0,1,8.53-14c-3.07.48-5.68,2.5-7.81,4.75a35.19,35.19,0,0,0-9.21,23.81l6.34.85A28.05,28.05,0,0,1,127.28,221.33Z" style="fill: #fca311"></path><path d="M125.13,236.74c-.18-.14-7.46-4.49-9.29,3.62s6.69,8.27,6.75,8S125.13,236.74,125.13,236.74Z" style="fill: #ae7461"></path><path d="M120.81,244.77s-.16.06-.43.12a1.45,1.45,0,0,1-1.06-.22c-.78-.5-1.19-2-.9-3.49a4.64,4.64,0,0,1,.85-1.94,1.69,1.69,0,0,1,1.3-.84.74.74,0,0,1,.75.57c.06.26,0,.41,0,.43s.2-.1.21-.45a.91.91,0,0,0-.2-.58,1.13,1.13,0,0,0-.74-.38,2,2,0,0,0-1.75.92,4.86,4.86,0,0,0-1,2.15c-.32,1.65.17,3.36,1.27,4a1.56,1.56,0,0,0,1.34.07C120.75,245,120.84,244.79,120.81,244.77Z" style="fill: #6f4439"></path></g></svg>